<?xml version="1.0" encoding="utf-8"?>
<svg id="master-artboard" viewBox="0 0 1400 980" version="1.1" xmlns="http://www.w3.org/2000/svg" x="0px" y="0px" style="enable-background:new 0 0 336 235.2;" width="1400px" height="980px"><defs><linearGradient id="gradient-0" gradientUnits="objectBoundingBox" x1="0.5" y1="0" x2="0.5" y2="1">
                <stop offset="0" style="stop-color: #ff7aa0"/>
                <stop offset="1" style="stop-color: #ff1457"/>
              </linearGradient></defs><rect id="ee-background" x="0" y="0" width="1400" height="980" style="fill: rgb(255, 122, 160); fill-opacity: 1; pointer-events: none;"/><g transform="matrix(1.7767333984375, 0, 0, 2.0267560482025146, -938.42919921875, -1368.9794921875002)"><g transform="matrix(1, 0, 0, 1, 1.1368683772161603e-13, 5.684341886080802e-14)">
	<g>
		<path class="st0" d="M1144.9,933.8c0,106.3-61.9,192.5-220.9,192.5c-159,0-220.9-86.2-220.9-192.5c0-106.3,61.9-192.5,220.9-192.5&#10;&#9;&#9;&#9;C1083,741.3,1144.9,827.5,1144.9,933.8z" style="fill: rgb(255, 197, 78);"/>
		<path class="st1" d="M1151.8,737.8c-12.6-12.6-111.4-39.5-161.3,9.4c95.5,18.3,141.5,77.5,152.1,151.7&#10;&#9;&#9;&#9;C1191.1,848.9,1164.4,750.3,1151.8,737.8z M696.4,737.8c-12.6,12.6-39.4,111.1,9.2,161.1c10.5-74.1,56.6-133.4,152.1-151.7&#10;&#9;&#9;&#9;C807.8,698.3,709,725.2,696.4,737.8z" style="fill: rgb(254, 191, 51);"/>
		<path class="st2" d="M1130.1,759.4c-10.2-6.9-68.8-19.5-104.7-3.1c57.8,19.9,92.4,58.2,108.5,105.9&#10;&#9;&#9;&#9;C1148.9,826.6,1136.9,769.5,1130.1,759.4z M718.1,759.4c-6.8,10-18.8,67.1-3.9,102.8c16.1-47.7,50.7-86,108.5-105.9&#10;&#9;&#9;&#9;C786.9,740,728.3,752.5,718.1,759.4z" style="fill: rgb(229, 168, 18);"/>
		<path class="st2" d="M895.2,742.3c-11.1,0.8-21.7,2.1-31.7,3.8v54.3c0,8.8,7.1,15.9,15.9,15.9c8.8,0,15.9-7.1,15.9-15.9V742.3z&#10;&#9;&#9;&#9; M924.1,833.2c8.8,0,15.9-7.1,15.9-15.9v-75.7c-5.2-0.2-10.5-0.3-15.9-0.3c-5.4,0-10.7,0.1-15.9,0.3v75.7&#10;&#9;&#9;&#9;C908.2,826.1,915.3,833.2,924.1,833.2z M924.1,963.2c-16.5,0-30,5.1-30,9.5c0,7.1,20.8,22.5,30,22.5s30-15.4,30-22.5&#10;&#9;&#9;&#9;C954,968.3,940.6,963.2,924.1,963.2z M953,742.3v58c0,8.8,7.1,15.9,15.9,15.9c8.8,0,15.9-7.1,15.9-15.9v-54.3&#10;&#9;&#9;&#9;C974.6,744.4,964.1,743.1,953,742.3z" style="fill: rgb(229, 168, 18);"/>
		<path class="st3" d="M788.2,1029.2l-50.7,13.6c-5.7,1.5-9,7.3-7.5,13c1.5,5.7,7.3,9,13,7.5l50.7-13.6c5.7-1.5,9-7.3,7.5-13&#10;&#9;&#9;&#9;C799.7,1031,793.9,1027.6,788.2,1029.2z M793.7,995.8L743,982.2c-5.7-1.5-11.5,1.8-13,7.5c-1.5,5.7,1.8,11.5,7.5,13l50.7,13.6&#10;&#9;&#9;&#9;c5.7,1.5,11.5-1.8,13-7.5C802.8,1003.2,799.4,997.4,793.7,995.8z M1110.7,1042.8l-50.7-13.6c-5.7-1.5-11.5,1.8-13,7.5&#10;&#9;&#9;&#9;c-1.5,5.7,1.8,11.5,7.5,13l50.7,13.6c5.7,1.5,11.5-1.8,13-7.5C1119.7,1050.1,1116.4,1044.3,1110.7,1042.8z M1060,1016.4l50.7-13.6&#10;&#9;&#9;&#9;c5.7-1.5,9-7.3,7.5-13c-1.5-5.7-7.3-9-13-7.5l-50.7,13.6c-5.7,1.5-9,7.3-7.5,13C1048.5,1014.5,1054.3,1017.9,1060,1016.4z" style="fill: rgb(105, 80, 47);"/>
	</g>
	<g>
		<path class="st3" d="M924.1,1015c67.4,0,94.5,39.8,94.5,59.9c0,5.5-4.5,10-10,10h-169c-5.5,0-10-4.5-10-10&#10;&#9;&#9;&#9;C829.6,1054.7,856.7,1015,924.1,1015z" style="fill: rgb(105, 80, 47);"/>
		<g>
			<path class="st3" d="M830.9,927.2c0-19.2-15.5-34.7-34.7-34.7c-19.2,0-34.7,15.5-34.7,34.7c0,19.2,15.5,34.7,34.7,34.7&#10;&#9;&#9;&#9;&#9;C815.4,961.9,830.9,946.4,830.9,927.2z" style="fill: rgb(105, 80, 47);"/>
			<path class="st3" d="M1086.6,927.2c0-19.2-15.5-34.7-34.7-34.7c-19.2,0-34.7,15.5-34.7,34.7c0,19.2,15.5,34.7,34.7,34.7&#10;&#9;&#9;&#9;&#9;C1071.1,961.9,1086.6,946.4,1086.6,927.2z" style="fill: rgb(105, 80, 47);"/>
		</g>
	</g>
</g></g></svg>