<?xml version="1.0" encoding="utf-8"?>
<svg id="master-artboard" viewBox="0 0 1400 980" version="1.1" xmlns="http://www.w3.org/2000/svg" x="0px" y="0px" style="enable-background:new 0 0 336 235.2;" width="1400px" height="980px"><defs><linearGradient id="gradient-0" gradientUnits="objectBoundingBox" x1="0.5" y1="0" x2="0.5" y2="1">
                <stop offset="0" style="stop-color: #ff7aa0"/>
                <stop offset="1" style="stop-color: #ff1457"/>
              </linearGradient></defs><rect id="ee-background" x="0" y="0" width="1400" height="980" style="fill: rgb(255, 122, 160); fill-opacity: 1; pointer-events: none;"/><g transform="matrix(1.7769445180892944, 0, 0, 2.0267560482025146, -1912.0838493557549, -1377.7032767283708)"><g transform="matrix(1, 0, 0, 1, 1.1368683772161603e-13, 5.684341886080802e-14)">
	<g>
		<path class="st0" d="M1696.8,933.8c0,106.3-61.9,192.5-220.9,192.5c-159,0-220.9-86.2-220.9-192.5c0-106.3,61.9-192.5,220.9-192.5&#10;&#9;&#9;&#9;C1634.9,741.3,1696.8,827.5,1696.8,933.8z" style="fill: rgb(255, 197, 78);"/>
		<path class="st1" d="M1703.6,737.8c-12.6-12.6-111.4-39.5-161.3,9.4c95.5,18.3,141.5,77.5,152.1,151.7&#10;&#9;&#9;&#9;C1743,848.9,1716.2,750.3,1703.6,737.8z M1248.3,737.8c-12.6,12.6-39.4,111.1,9.2,161.1c10.5-74.1,56.6-133.4,152.1-151.7&#10;&#9;&#9;&#9;C1359.6,698.3,1260.9,725.2,1248.3,737.8z" style="fill: rgb(254, 191, 51);"/>
		<path class="st2" d="M1681.9,759.4c-10.2-6.9-68.8-19.5-104.7-3.1c57.8,19.9,92.4,58.2,108.5,105.9&#10;&#9;&#9;&#9;C1700.7,826.6,1688.7,769.5,1681.9,759.4z M1270,759.4c-6.8,10-18.8,67.1-3.9,102.8c16.1-47.7,50.7-86,108.5-105.9&#10;&#9;&#9;&#9;C1338.8,740,1280.1,752.5,1270,759.4z" style="fill: rgb(229, 168, 18);"/>
		<path class="st2" d="M1447.1,742.3c-11.1,0.8-21.7,2.1-31.7,3.8v54.3c0,8.8,7.1,15.9,15.9,15.9c8.8,0,15.9-7.1,15.9-15.9V742.3z&#10;&#9;&#9;&#9; M1476,833.2c8.8,0,15.9-7.1,15.9-15.9v-75.7c-5.2-0.2-10.5-0.3-15.9-0.3s-10.7,0.1-15.9,0.3v75.7&#10;&#9;&#9;&#9;C1460.1,826.1,1467.2,833.2,1476,833.2z M1475.9,963.2c-16.5,0-30,5.1-30,9.5c0,7.1,20.8,22.5,30,22.5c9.1,0,30-15.4,30-22.5&#10;&#9;&#9;&#9;C1505.9,968.3,1492.5,963.2,1475.9,963.2z M1504.8,742.3v58c0,8.8,7.1,15.9,15.9,15.9s15.9-7.1,15.9-15.9v-54.3&#10;&#9;&#9;&#9;C1526.5,744.4,1516,743.1,1504.8,742.3z" style="fill: rgb(229, 168, 18);"/>
		<path class="st3" d="M1340.1,1029.2l-50.7,13.6c-5.7,1.5-9,7.3-7.5,13c1.5,5.7,7.3,9,13,7.5l50.7-13.6c5.7-1.5,9-7.3,7.5-13&#10;&#9;&#9;&#9;C1351.6,1031,1345.7,1027.6,1340.1,1029.2z M1345.6,995.8l-50.7-13.6c-5.7-1.5-11.5,1.8-13,7.5c-1.5,5.7,1.8,11.5,7.5,13&#10;&#9;&#9;&#9;l50.7,13.6c5.7,1.5,11.5-1.8,13-7.5C1354.6,1003.2,1351.3,997.4,1345.6,995.8z M1662.6,1042.8l-50.7-13.6&#10;&#9;&#9;&#9;c-5.7-1.5-11.5,1.8-13,7.5c-1.5,5.7,1.8,11.5,7.5,13l50.7,13.6c5.7,1.5,11.5-1.8,13-7.5&#10;&#9;&#9;&#9;C1671.6,1050.1,1668.2,1044.3,1662.6,1042.8z M1611.8,1016.4l50.7-13.6c5.7-1.5,9-7.3,7.5-13c-1.5-5.7-7.3-9-13-7.5l-50.7,13.6&#10;&#9;&#9;&#9;c-5.7,1.5-9,7.3-7.5,13C1600.3,1014.5,1606.2,1017.9,1611.8,1016.4z" style="fill: rgb(105, 80, 47);"/>
	</g>
	<g>
		<path class="st3" d="M1475.9,1086.9c-75.4,0-104.5-39.7-104.5-59.9c0-5.5,4.5-10,10-10h189c5.5,0,10,4.5,10,10&#10;&#9;&#9;&#9;C1580.4,1047.2,1551.3,1086.9,1475.9,1086.9z" style="fill: rgb(105, 80, 47);"/>
		<path class="st6" d="M1656.1,893c0-14.5-11.8-26.3-26.3-26.3c-14.5,0-26.3,11.7-26.3,26.2c-0.1-14.5-11.8-26.2-26.3-26.2&#10;&#9;&#9;&#9;c-14.5,0-26.3,11.8-26.3,26.3c0,39,52.4,68.8,52.6,68.9C1603.5,961.9,1656.1,931.9,1656.1,893z" style="fill: rgb(237, 28, 36);"/>
		<path class="st6" d="M1400.7,893c0-14.5-11.8-26.3-26.3-26.3c-14.5,0-26.3,11.7-26.3,26.2c-0.1-14.5-11.8-26.2-26.3-26.2&#10;&#9;&#9;&#9;c-14.5,0-26.3,11.8-26.3,26.3c0,39,52.4,68.8,52.6,68.9C1348.1,961.9,1400.7,931.9,1400.7,893z" style="fill: rgb(237, 28, 36);"/>
	</g>
</g></g></svg>