<?xml version="1.0" encoding="utf-8"?>
<svg id="master-artboard" viewBox="0 0 1400 980" version="1.1" xmlns="http://www.w3.org/2000/svg" x="0px" y="0px" style="enable-background:new 0 0 336 235.2;" width="1400px" height="980px"><defs><linearGradient id="gradient-0" gradientUnits="objectBoundingBox" x1="0.5" y1="0" x2="0.5" y2="1">
                <stop offset="0" style="stop-color: #ff7aa0"/>
                <stop offset="1" style="stop-color: #ff1457"/>
              </linearGradient></defs><rect id="ee-background" x="0" y="0" width="1400" height="980" style="fill: rgb(255, 122, 160); fill-opacity: 1; pointer-events: none;"/><g transform="matrix(1.7765834331512453, 0, 0, 2.026755809783936, -2899.3242432002526, -251.74140015553195)"><g transform="matrix(1, 0, 0, 1, 1.1368683772161603e-13, 5.684341886080802e-14)">
	<g>
		<path class="st0" d="M2248.7,381.9c0,106.3-61.9,192.5-220.9,192.5c-159,0-220.9-86.2-220.9-192.5c0-106.3,61.9-192.5,220.9-192.5&#10;&#9;&#9;&#9;C2186.8,189.4,2248.7,275.6,2248.7,381.9z" style="fill: rgb(255, 197, 78);"/>
		<path class="st1" d="M2255.5,185.9c-12.6-12.6-111.4-39.5-161.3,9.4c95.5,18.3,141.5,77.5,152.1,151.7&#10;&#9;&#9;&#9;C2294.9,297,2268.1,198.5,2255.5,185.9z M1800.1,185.9c-12.6,12.6-39.4,111.1,9.2,161.1c10.5-74.1,56.6-133.4,152.1-151.7&#10;&#9;&#9;&#9;C1911.5,146.4,1812.7,173.3,1800.1,185.9z" style="fill: rgb(254, 191, 51);"/>
		<path class="st2" d="M2233.8,207.6c-10.2-6.9-68.8-19.5-104.7-3.1c57.8,19.9,92.4,58.2,108.5,105.9&#10;&#9;&#9;&#9;C2252.6,274.7,2240.6,217.6,2233.8,207.6z M1821.8,207.6c-6.8,10-18.8,67.1-3.9,102.8c16.1-47.7,50.7-86,108.5-105.9&#10;&#9;&#9;&#9;C1890.7,188.1,1832,200.7,1821.8,207.6z" style="fill: rgb(229, 168, 18);"/>
		<path class="st2" d="M1998.9,190.5c-11.1,0.8-21.7,2.1-31.7,3.8v54.3c0,8.8,7.1,15.9,15.9,15.9c8.8,0,15.9-7.1,15.9-15.9V190.5z&#10;&#9;&#9;&#9; M2027.8,281.4c8.8,0,15.9-7.1,15.9-15.9v-75.7c-5.2-0.2-10.5-0.3-15.9-0.3s-10.7,0.1-15.9,0.3v75.7&#10;&#9;&#9;&#9;C2012,274.3,2019.1,281.4,2027.8,281.4z M2027.8,411.4c-16.5,0-30,5.1-30,9.5c0,7.1,20.8,22.5,30,22.5c9.1,0,30-15.4,30-22.5&#10;&#9;&#9;&#9;C2057.8,416.4,2044.4,411.4,2027.8,411.4z M2056.7,190.5v58c0,8.8,7.1,15.9,15.9,15.9s15.9-7.1,15.9-15.9v-54.3&#10;&#9;&#9;&#9;C2078.4,192.5,2067.8,191.3,2056.7,190.5z" style="fill: rgb(229, 168, 18);"/>
		<path class="st3" d="M1891.9,477.3l-50.7,13.6c-5.7,1.5-9,7.3-7.5,13c1.5,5.7,7.3,9,13,7.5l50.7-13.6c5.7-1.5,9-7.3,7.5-13&#10;&#9;&#9;&#9;C1903.4,479.2,1897.6,475.8,1891.9,477.3z M1897.4,444l-50.7-13.6c-5.7-1.5-11.5,1.8-13,7.5c-1.5,5.7,1.8,11.5,7.5,13l50.7,13.6&#10;&#9;&#9;&#9;c5.7,1.5,11.5-1.8,13-7.5C1906.5,451.3,1903.1,445.5,1897.4,444z M2214.4,490.9l-50.7-13.6c-5.7-1.5-11.5,1.8-13,7.5&#10;&#9;&#9;&#9;c-1.5,5.7,1.8,11.5,7.5,13l50.7,13.6c5.7,1.5,11.5-1.8,13-7.5C2223.5,498.2,2220.1,492.4,2214.4,490.9z M2163.7,464.5l50.7-13.6&#10;&#9;&#9;&#9;c5.7-1.5,9-7.3,7.5-13c-1.5-5.7-7.3-9-13-7.5l-50.7,13.6c-5.7,1.5-9,7.3-7.5,13C2152.2,462.7,2158,466,2163.7,464.5z" style="fill: rgb(105, 80, 47);"/>
	</g>
	<g>
		<g>
			<path class="st3" d="M1934.6,372.2c0-19.2-15.5-34.7-34.7-34.7s-34.7,15.5-34.7,34.7c0,19.2,15.5,34.7,34.7,34.7&#10;&#9;&#9;&#9;&#9;S1934.6,391.4,1934.6,372.2z" style="fill: rgb(105, 80, 47);"/>
			<path class="st3" d="M2190.4,372.2c0-19.2-15.5-34.7-34.7-34.7c-19.2,0-34.7,15.5-34.7,34.7c0,19.2,15.5,34.7,34.7,34.7&#10;&#9;&#9;&#9;&#9;C2174.8,406.9,2190.4,391.4,2190.4,372.2z" style="fill: rgb(105, 80, 47);"/>
		</g>
		<path class="st3" d="M2082.3,507h-109c-8.3,0-15-6.7-15-15c0-8.3,6.7-15,15-15h109c8.3,0,15,6.7,15,15&#10;&#9;&#9;&#9;C2097.3,500.3,2090.6,507,2082.3,507z" style="fill: rgb(105, 80, 47);"/>
	</g>
</g></g></svg>