<?xml version="1.0" encoding="utf-8"?>
<svg id="master-artboard" viewBox="0 0 1400 980" version="1.1" xmlns="http://www.w3.org/2000/svg" x="0px" y="0px" style="enable-background:new 0 0 336 235.2;" width="1400px" height="980px"><defs><linearGradient id="gradient-0" gradientUnits="objectBoundingBox" x1="0.5" y1="0" x2="0.5" y2="1">
                <stop offset="0" style="stop-color: #ff7aa0"/>
                <stop offset="1" style="stop-color: #ff1457"/>
              </linearGradient></defs><rect id="ee-background" x="0" y="0" width="1400" height="980" style="fill: rgb(255, 122, 160); fill-opacity: 1; pointer-events: none;"/><g transform="matrix(1.776947259902954, 0, 0, 1.776947259902954, -1907.9983156468293, -214.29752506060439)"><g transform="matrix(1, 0, 0, 1, 1.1368683772161603e-13, 5.684341886080802e-14)">
	<g>
		<path class="st0" d="M1696.8,381.9c0,106.3-61.9,192.5-220.9,192.5c-159,0-220.9-86.2-220.9-192.5c0-106.3,61.9-192.5,220.9-192.5&#10;&#9;&#9;&#9;C1634.9,189.4,1696.8,275.6,1696.8,381.9z" style="fill: rgb(255, 197, 78);"/>
		<path class="st1" d="M1703.6,185.9c-12.6-12.6-111.4-39.5-161.3,9.4c95.5,18.3,141.5,77.5,152.1,151.7&#10;&#9;&#9;&#9;C1743,297,1716.2,198.5,1703.6,185.9z M1248.3,185.9c-12.6,12.6-39.4,111.1,9.2,161.1c10.5-74.1,56.6-133.4,152.1-151.7&#10;&#9;&#9;&#9;C1359.6,146.4,1260.9,173.3,1248.3,185.9z" style="fill: rgb(254, 191, 51);"/>
		<path class="st2" d="M1681.9,207.6c-10.2-6.9-68.8-19.5-104.7-3.1c57.8,19.9,92.4,58.2,108.5,105.9&#10;&#9;&#9;&#9;C1700.7,274.7,1688.7,217.6,1681.9,207.6z M1270,207.6c-6.8,10-18.8,67.1-3.9,102.8c16.1-47.7,50.7-86,108.5-105.9&#10;&#9;&#9;&#9;C1338.8,188.1,1280.1,200.7,1270,207.6z" style="fill: rgb(229, 168, 18);"/>
		<path class="st2" d="M1447.1,190.5c-11.1,0.8-21.7,2.1-31.7,3.8v54.3c0,8.8,7.1,15.9,15.9,15.9c8.8,0,15.9-7.1,15.9-15.9V190.5z&#10;&#9;&#9;&#9; M1476,281.4c8.8,0,15.9-7.1,15.9-15.9v-75.7c-5.2-0.2-10.5-0.3-15.9-0.3s-10.7,0.1-15.9,0.3v75.7&#10;&#9;&#9;&#9;C1460.1,274.3,1467.2,281.4,1476,281.4z M1475.9,411.4c-16.5,0-30,5.1-30,9.5c0,7.1,20.8,22.5,30,22.5c9.1,0,30-15.4,30-22.5&#10;&#9;&#9;&#9;C1505.9,416.4,1492.5,411.4,1475.9,411.4z M1504.8,190.5v58c0,8.8,7.1,15.9,15.9,15.9s15.9-7.1,15.9-15.9v-54.3&#10;&#9;&#9;&#9;C1526.5,192.5,1516,191.3,1504.8,190.5z" style="fill: rgb(229, 168, 18);"/>
		<path class="st3" d="M1340.1,477.3l-50.7,13.6c-5.7,1.5-9,7.3-7.5,13c1.5,5.7,7.3,9,13,7.5l50.7-13.6c5.7-1.5,9-7.3,7.5-13&#10;&#9;&#9;&#9;C1351.6,479.2,1345.7,475.8,1340.1,477.3z M1345.6,444l-50.7-13.6c-5.7-1.5-11.5,1.8-13,7.5c-1.5,5.7,1.8,11.5,7.5,13l50.7,13.6&#10;&#9;&#9;&#9;c5.7,1.5,11.5-1.8,13-7.5C1354.6,451.3,1351.3,445.5,1345.6,444z M1662.6,490.9l-50.7-13.6c-5.7-1.5-11.5,1.8-13,7.5&#10;&#9;&#9;&#9;c-1.5,5.7,1.8,11.5,7.5,13l50.7,13.6c5.7,1.5,11.5-1.8,13-7.5C1671.6,498.2,1668.2,492.4,1662.6,490.9z M1611.8,464.5l50.7-13.6&#10;&#9;&#9;&#9;c5.7-1.5,9-7.3,7.5-13c-1.5-5.7-7.3-9-13-7.5l-50.7,13.6c-5.7,1.5-9,7.3-7.5,13C1600.3,462.7,1606.2,466,1611.8,464.5z" style="fill: rgb(105, 80, 47);"/>
	</g>
	<g>
		<g>
			<path class="st3" d="M1382.8,372.2c0-19.2-15.5-34.7-34.7-34.7s-34.7,15.5-34.7,34.7c0,19.2,15.5,34.7,34.7,34.7&#10;&#9;&#9;&#9;&#9;S1382.8,391.4,1382.8,372.2z" style="fill: rgb(105, 80, 47);"/>
			<path class="st3" d="M1638.5,372.2c0-19.2-15.5-34.7-34.7-34.7c-19.2,0-34.7,15.5-34.7,34.7c0,19.2,15.5,34.7,34.7,34.7&#10;&#9;&#9;&#9;&#9;C1623,406.9,1638.5,391.4,1638.5,372.2z" style="fill: rgb(105, 80, 47);"/>
		</g>
		<path class="st3" d="M1475.9,532c-75.4,0-104.5-39.7-104.5-59.9c0-5.5,4.5-10,10-10h189c5.5,0,10,4.5,10,10&#10;&#9;&#9;&#9;C1580.4,492.2,1551.3,532,1475.9,532z" style="fill: rgb(105, 80, 47);"/>
		<path class="st5" d="M1531.6,513.4c0-5.4-4.3-9.7-9.7-9.7l-92,0c-5.4,0-9.7,4.3-9.7,9.7V576c0,30.8,24.9,55.7,55.7,55.7&#10;&#9;&#9;&#9;s55.7-24.9,55.7-55.7V513.4z" style="fill: rgb(215, 25, 32);"/>
	</g>
</g></g></svg>