<?xml version="1.0" encoding="utf-8"?>
<svg id="master-artboard" viewBox="0 0 1400 980" version="1.1" xmlns="http://www.w3.org/2000/svg" x="0px" y="0px" style="enable-background:new 0 0 336 235.2;" width="1400px" height="980px"><defs><linearGradient id="gradient-0" gradientUnits="objectBoundingBox" x1="0.5" y1="0" x2="0.5" y2="1">
                <stop offset="0" style="stop-color: #ff7aa0"/>
                <stop offset="1" style="stop-color: #ff1457"/>
              </linearGradient></defs><rect id="ee-background" x="0" y="0" width="1400" height="980" style="fill: rgb(255, 122, 160); fill-opacity: 1; pointer-events: none;"/><g transform="matrix(1.7767333984375002, 0, 0, 2.026755809783936, -945.9689269929056, -261.5904846191406)"><g transform="matrix(1, 0, 0, 1, 1.1368683772161603e-13, 5.684341886080802e-14)">
	<g>
		<path class="st0" d="M1144.9,381.9c0,106.3-61.9,192.5-220.9,192.5c-159,0-220.9-86.2-220.9-192.5c0-106.3,61.9-192.5,220.9-192.5&#10;&#9;&#9;&#9;C1083,189.4,1144.9,275.6,1144.9,381.9z" style="fill: rgb(255, 197, 78);"/>
		<path class="st1" d="M1151.8,185.9c-12.6-12.6-111.4-39.5-161.3,9.4c95.5,18.3,141.5,77.5,152.1,151.7&#10;&#9;&#9;&#9;C1191.1,297,1164.4,198.5,1151.8,185.9z M696.4,185.9C683.8,198.5,657,297,705.6,347c10.5-74.1,56.6-133.4,152.1-151.7&#10;&#9;&#9;&#9;C807.8,146.4,709,173.3,696.4,185.9z" style="fill: rgb(254, 191, 51);"/>
		<path class="st2" d="M1130.1,207.6c-10.2-6.9-68.8-19.5-104.7-3.1c57.8,19.9,92.4,58.2,108.5,105.9&#10;&#9;&#9;&#9;C1148.9,274.7,1136.9,217.6,1130.1,207.6z M718.1,207.6c-6.8,10-18.8,67.1-3.9,102.8c16.1-47.7,50.7-86,108.5-105.9&#10;&#9;&#9;&#9;C786.9,188.1,728.3,200.7,718.1,207.6z" style="fill: rgb(229, 168, 18);"/>
		<path class="st2" d="M895.2,190.5c-11.1,0.8-21.7,2.1-31.7,3.8v54.3c0,8.8,7.1,15.9,15.9,15.9c8.8,0,15.9-7.1,15.9-15.9V190.5z&#10;&#9;&#9;&#9; M924.1,281.4c8.8,0,15.9-7.1,15.9-15.9v-75.7c-5.2-0.2-10.5-0.3-15.9-0.3c-5.4,0-10.7,0.1-15.9,0.3v75.7&#10;&#9;&#9;&#9;C908.2,274.3,915.3,281.4,924.1,281.4z M924.1,411.4c-16.5,0-30,5.1-30,9.5c0,7.1,20.8,22.5,30,22.5s30-15.4,30-22.5&#10;&#9;&#9;&#9;C954,416.4,940.6,411.4,924.1,411.4z M953,190.5v58c0,8.8,7.1,15.9,15.9,15.9c8.8,0,15.9-7.1,15.9-15.9v-54.3&#10;&#9;&#9;&#9;C974.6,192.5,964.1,191.3,953,190.5z" style="fill: rgb(229, 168, 18);"/>
		<path class="st3" d="M788.2,477.3l-50.7,13.6c-5.7,1.5-9,7.3-7.5,13c1.5,5.7,7.3,9,13,7.5l50.7-13.6c5.7-1.5,9-7.3,7.5-13&#10;&#9;&#9;&#9;C799.7,479.2,793.9,475.8,788.2,477.3z M793.7,444L743,430.4c-5.7-1.5-11.5,1.8-13,7.5c-1.5,5.7,1.8,11.5,7.5,13l50.7,13.6&#10;&#9;&#9;&#9;c5.7,1.5,11.5-1.8,13-7.5C802.8,451.3,799.4,445.5,793.7,444z M1110.7,490.9l-50.7-13.6c-5.7-1.5-11.5,1.8-13,7.5&#10;&#9;&#9;&#9;c-1.5,5.7,1.8,11.5,7.5,13l50.7,13.6c5.7,1.5,11.5-1.8,13-7.5C1119.7,498.2,1116.4,492.4,1110.7,490.9z M1060,464.5l50.7-13.6&#10;&#9;&#9;&#9;c5.7-1.5,9-7.3,7.5-13c-1.5-5.7-7.3-9-13-7.5l-50.7,13.6c-5.7,1.5-9,7.3-7.5,13C1048.5,462.7,1054.3,466,1060,464.5z" style="fill: rgb(105, 80, 47);"/>
	</g>
	<g>
		<g>
			<path class="st3" d="M830.9,372.2c0-19.2-15.5-34.7-34.7-34.7c-19.2,0-34.7,15.5-34.7,34.7c0,19.2,15.5,34.7,34.7,34.7&#10;&#9;&#9;&#9;&#9;C815.4,406.9,830.9,391.4,830.9,372.2z" style="fill: rgb(105, 80, 47);"/>
			<path class="st3" d="M1086.6,372.2c0-19.2-15.5-34.7-34.7-34.7c-19.2,0-34.7,15.5-34.7,34.7c0,19.2,15.5,34.7,34.7,34.7&#10;&#9;&#9;&#9;&#9;C1071.1,406.9,1086.6,391.4,1086.6,372.2z" style="fill: rgb(105, 80, 47);"/>
		</g>
		<path class="st3" d="M924.1,529c-53.7,0-85.7-24.1-99.9-38.4c-5.8-5.9-5.8-15.4,0.1-21.2c5.9-5.8,15.4-5.8,21.2,0.1&#10;&#9;&#9;&#9;c13.4,13.5,37.9,29.5,78.6,29.5c40.7,0,65.2-16.1,78.6-29.5c5.8-5.9,15.3-5.9,21.2-0.1c5.9,5.8,5.9,15.3,0.1,21.2&#10;&#9;&#9;&#9;C1009.7,504.9,977.8,529,924.1,529z" style="fill: rgb(105, 80, 47);"/>
	</g>
</g></g></svg>