<?xml version="1.0" encoding="utf-8"?>
<svg id="master-artboard" viewBox="0 0 1400 980" version="1.1" xmlns="http://www.w3.org/2000/svg" x="0px" y="0px" style="enable-background:new 0 0 336 235.2;" width="1400px" height="980px"><defs><linearGradient id="gradient-0" gradientUnits="objectBoundingBox" x1="0.5" y1="0" x2="0.5" y2="1">
                <stop offset="0" style="stop-color: #ff7aa0"/>
                <stop offset="1" style="stop-color: #ff1457"/>
              </linearGradient></defs><rect id="ee-background" x="0" y="0" width="1400" height="980" style="fill: rgb(255, 122, 160); fill-opacity: 1; pointer-events: none;"/><g transform="matrix(1.776914358139038, 0, 0, 2.0267558097839355, 30.66340446472168, -250.05177307128906)"><g transform="matrix(1, 0, 0, 1, 1.1368683772161603e-13, 5.684341886080802e-14)">
	<g>
		<path class="st0" d="M593.1,381.9c0,106.3-61.9,192.5-220.9,192.5c-159,0-220.9-86.2-220.9-192.5c0-106.3,61.9-192.5,220.9-192.5&#10;&#9;&#9;&#9;C531.2,189.4,593.1,275.6,593.1,381.9z" style="fill: rgb(255, 197, 78);"/>
		<path class="st1" d="M599.9,185.9c-12.6-12.6-111.4-39.5-161.3,9.4c95.5,18.3,141.5,77.5,152.1,151.7&#10;&#9;&#9;&#9;C639.3,297,612.5,198.5,599.9,185.9z M144.5,185.9C132,198.5,105.2,297,153.8,347c10.5-74.1,56.6-133.4,152.1-151.7&#10;&#9;&#9;&#9;C255.9,146.4,157.1,173.3,144.5,185.9z" style="fill: rgb(254, 191, 51);"/>
		<path class="st2" d="M578.2,207.6c-10.2-6.9-68.8-19.5-104.7-3.1c57.8,19.9,92.4,58.2,108.5,105.9&#10;&#9;&#9;&#9;C597,274.7,585,217.6,578.2,207.6z M166.2,207.6c-6.8,10-18.8,67.1-3.9,102.8c16.1-47.7,50.7-86,108.5-105.9&#10;&#9;&#9;&#9;C235.1,188.1,176.4,200.7,166.2,207.6z" style="fill: rgb(229, 168, 18);"/>
		<path class="st2" d="M343.3,190.5c-11.1,0.8-21.7,2.1-31.7,3.8v54.3c0,8.8,7.1,15.9,15.9,15.9c8.8,0,15.9-7.1,15.9-15.9V190.5z&#10;&#9;&#9;&#9; M372.2,281.4c8.8,0,15.9-7.1,15.9-15.9v-75.7c-5.2-0.2-10.5-0.3-15.9-0.3c-5.4,0-10.7,0.1-15.9,0.3v75.7&#10;&#9;&#9;&#9;C356.4,274.3,363.5,281.4,372.2,281.4z M372.2,411.4c-16.5,0-30,5.1-30,9.5c0,7.1,20.8,22.5,30,22.5s30-15.4,30-22.5&#10;&#9;&#9;&#9;C402.2,416.4,388.7,411.4,372.2,411.4z M401.1,190.5v58c0,8.8,7.1,15.9,15.9,15.9c8.8,0,15.9-7.1,15.9-15.9v-54.3&#10;&#9;&#9;&#9;C422.8,192.5,412.2,191.3,401.1,190.5z" style="fill: rgb(229, 168, 18);"/>
		<path class="st3" d="M236.3,477.3l-50.7,13.6c-5.7,1.5-9,7.3-7.5,13c1.5,5.7,7.3,9,13,7.5l50.7-13.6c5.7-1.5,9-7.3,7.5-13&#10;&#9;&#9;&#9;C247.8,479.2,242,475.8,236.3,477.3z M241.8,444l-50.7-13.6c-5.7-1.5-11.5,1.8-13,7.5c-1.5,5.7,1.8,11.5,7.5,13l50.7,13.6&#10;&#9;&#9;&#9;c5.7,1.5,11.5-1.8,13-7.5C250.9,451.3,247.5,445.5,241.8,444z M558.8,490.9l-50.7-13.6c-5.7-1.5-11.5,1.8-13,7.5&#10;&#9;&#9;&#9;c-1.5,5.7,1.8,11.5,7.5,13l50.7,13.6c5.7,1.5,11.5-1.8,13-7.5C567.9,498.2,564.5,492.4,558.8,490.9z M508.1,464.5l50.7-13.6&#10;&#9;&#9;&#9;c5.7-1.5,9-7.3,7.5-13c-1.5-5.7-7.3-9-13-7.5L502.6,444c-5.7,1.5-9,7.3-7.5,13C496.6,462.7,502.4,466,508.1,464.5z" style="fill: rgb(105, 80, 47);"/>
	</g>
	<g>
		<g>
			<path class="st3" d="M279.1,372.2c0-19.2-15.5-34.7-34.7-34.7c-19.2,0-34.7,15.5-34.7,34.7c0,19.2,15.5,34.7,34.7,34.7&#10;&#9;&#9;&#9;&#9;C263.5,406.9,279.1,391.4,279.1,372.2z" style="fill: rgb(105, 80, 47);"/>
			<path class="st3" d="M534.8,372.2c0-19.2-15.5-34.7-34.7-34.7c-19.2,0-34.7,15.5-34.7,34.7c0,19.2,15.5,34.7,34.7,34.7&#10;&#9;&#9;&#9;&#9;C519.2,406.9,534.8,391.4,534.8,372.2z" style="fill: rgb(105, 80, 47);"/>
		</g>
		<path class="st4" d="M372.2,532c-75.4,0-104.5-39.7-104.5-59.9c0-5.5,4.5-10,10-10h189c5.5,0,10,4.5,10,10&#10;&#9;&#9;&#9;C476.7,492.2,447.6,532,372.2,532z" style="fill: rgb(255, 255, 255);"/>
	</g>
</g></g></svg>