<?xml version="1.0" encoding="utf-8"?>
<svg id="master-artboard" viewBox="0 0 1400 980" version="1.1" xmlns="http://www.w3.org/2000/svg" x="0px" y="0px" style="enable-background:new 0 0 336 235.2;" width="1400px" height="980px"><defs><linearGradient id="gradient-0" gradientUnits="objectBoundingBox" x1="0.5" y1="0" x2="0.5" y2="1">
                <stop offset="0" style="stop-color: #ff7aa0"/>
                <stop offset="1" style="stop-color: #ff1457"/>
              </linearGradient></defs><rect id="ee-background" x="0" y="0" width="1400" height="980" style="fill: rgb(255, 122, 160); fill-opacity: 1; pointer-events: none;"/><g transform="matrix(1.7765834331512453, 0, 0, 2.0267560482025146, -2887.054265914091, -1365.400078703325)"><g transform="matrix(1, 0, 0, 1, 1.1368683772161603e-13, 5.684341886080802e-14)">
	<g>
		<path class="st0" d="M2248.7,933.8c0,106.3-61.9,192.5-220.9,192.5c-159,0-220.9-86.2-220.9-192.5c0-106.3,61.9-192.5,220.9-192.5&#10;&#9;&#9;&#9;C2186.8,741.3,2248.7,827.5,2248.7,933.8z" style="fill: rgb(255, 197, 78);"/>
		<path class="st1" d="M2255.5,737.8c-12.6-12.6-111.4-39.5-161.3,9.4c95.5,18.3,141.5,77.5,152.1,151.7&#10;&#9;&#9;&#9;C2294.9,848.9,2268.1,750.3,2255.5,737.8z M1800.1,737.8c-12.6,12.6-39.4,111.1,9.2,161.1c10.5-74.1,56.6-133.4,152.1-151.7&#10;&#9;&#9;&#9;C1911.5,698.3,1812.7,725.2,1800.1,737.8z" style="fill: rgb(254, 191, 51);"/>
		<path class="st2" d="M2233.8,759.4c-10.2-6.9-68.8-19.5-104.7-3.1c57.8,19.9,92.4,58.2,108.5,105.9&#10;&#9;&#9;&#9;C2252.6,826.6,2240.6,769.5,2233.8,759.4z M1821.8,759.4c-6.8,10-18.8,67.1-3.9,102.8c16.1-47.7,50.7-86,108.5-105.9&#10;&#9;&#9;&#9;C1890.7,740,1832,752.5,1821.8,759.4z" style="fill: rgb(229, 168, 18);"/>
		<path class="st2" d="M1998.9,742.3c-11.1,0.8-21.7,2.1-31.7,3.8v54.3c0,8.8,7.1,15.9,15.9,15.9c8.8,0,15.9-7.1,15.9-15.9V742.3z&#10;&#9;&#9;&#9; M2027.8,833.2c8.8,0,15.9-7.1,15.9-15.9v-75.7c-5.2-0.2-10.5-0.3-15.9-0.3s-10.7,0.1-15.9,0.3v75.7&#10;&#9;&#9;&#9;C2012,826.1,2019.1,833.2,2027.8,833.2z M2027.8,963.2c-16.5,0-30,5.1-30,9.5c0,7.1,20.8,22.5,30,22.5c9.1,0,30-15.4,30-22.5&#10;&#9;&#9;&#9;C2057.8,968.3,2044.4,963.2,2027.8,963.2z M2056.7,742.3v58c0,8.8,7.1,15.9,15.9,15.9s15.9-7.1,15.9-15.9v-54.3&#10;&#9;&#9;&#9;C2078.4,744.4,2067.8,743.1,2056.7,742.3z" style="fill: rgb(229, 168, 18);"/>
		<path class="st3" d="M1891.9,1029.2l-50.7,13.6c-5.7,1.5-9,7.3-7.5,13c1.5,5.7,7.3,9,13,7.5l50.7-13.6c5.7-1.5,9-7.3,7.5-13&#10;&#9;&#9;&#9;C1903.4,1031,1897.6,1027.6,1891.9,1029.2z M1897.4,995.8l-50.7-13.6c-5.7-1.5-11.5,1.8-13,7.5c-1.5,5.7,1.8,11.5,7.5,13&#10;&#9;&#9;&#9;l50.7,13.6c5.7,1.5,11.5-1.8,13-7.5C1906.5,1003.2,1903.1,997.4,1897.4,995.8z M2214.4,1042.8l-50.7-13.6&#10;&#9;&#9;&#9;c-5.7-1.5-11.5,1.8-13,7.5c-1.5,5.7,1.8,11.5,7.5,13l50.7,13.6c5.7,1.5,11.5-1.8,13-7.5&#10;&#9;&#9;&#9;C2223.5,1050.1,2220.1,1044.3,2214.4,1042.8z M2163.7,1016.4l50.7-13.6c5.7-1.5,9-7.3,7.5-13c-1.5-5.7-7.3-9-13-7.5l-50.7,13.6&#10;&#9;&#9;&#9;c-5.7,1.5-9,7.3-7.5,13C2152.2,1014.5,2158,1017.9,2163.7,1016.4z" style="fill: rgb(105, 80, 47);"/>
	</g>
	<g>
		<path class="st3" d="M2082.3,1062h-109c-8.3,0-15-6.7-15-15s6.7-15,15-15h109c8.3,0,15,6.7,15,15S2090.6,1062,2082.3,1062z" style="fill: rgb(105, 80, 47);"/>
		<path class="st3" d="M1934.6,927.2c0-19.2-15.5-34.7-34.7-34.7c-19.2,0-34.7,15.5-34.7,34.7c0,19.2,15.5,34.7,34.7,34.7&#10;&#9;&#9;&#9;C1919.1,961.9,1934.6,946.4,1934.6,927.2z" style="fill: rgb(105, 80, 47);"/>
		<path class="st3" d="M2190.4,927.2c0-19.2-15.5-34.7-34.7-34.7s-34.7,15.5-34.7,34.7c0,19.2,15.5,34.7,34.7,34.7&#10;&#9;&#9;&#9;S2190.4,946.4,2190.4,927.2z" style="fill: rgb(105, 80, 47);"/>
		<path class="st3" d="M1922.3,930.6l-59.8-34.5c-7.2-4.1-9.6-13.3-5.5-20.5c4.1-7.2,13.3-9.6,20.5-5.5l59.8,34.5&#10;&#9;&#9;&#9;c7.2,4.1,9.6,13.3,5.5,20.5C1938.7,932.3,1929.5,934.8,1922.3,930.6z" style="fill: rgb(105, 80, 47);"/>
		<path class="st3" d="M2193,896.1l-59.8,34.5c-7.2,4.1-16.3,1.7-20.5-5.5c-4.1-7.2-1.7-16.3,5.5-20.5l59.8-34.5&#10;&#9;&#9;&#9;c7.2-4.1,16.3-1.7,20.5,5.5C2202.6,882.8,2200.2,892,2193,896.1z" style="fill: rgb(105, 80, 47);"/>
	</g>
</g></g></svg>