<?xml version="1.0" encoding="utf-8"?>
<svg id="master-artboard" viewBox="0 0 1400 980" version="1.1" xmlns="http://www.w3.org/2000/svg" x="0px" y="0px" style="enable-background:new 0 0 336 235.2;" width="1400px" height="980px"><defs><linearGradient id="gradient-0" gradientUnits="objectBoundingBox" x1="0.5" y1="0" x2="0.5" y2="1">
                <stop offset="0" style="stop-color: #ff7aa0"/>
                <stop offset="1" style="stop-color: #ff1457"/>
              </linearGradient></defs><rect id="ee-background" x="0" y="0" width="1400" height="980" style="fill: rgb(255, 122, 160); fill-opacity: 1; pointer-events: none;"/><g transform="matrix(1.7765834331512453, 0, 0, 2.0267560482025146, 56.711307196979305, -2481.310167896081)"><g transform="matrix(1, 0, 0, 1, 1.1368683772161603e-13, 5.684341886080802e-14)">
	<g>
		<path class="st0" d="M593.1,1485.6c0,106.3-61.9,192.5-220.9,192.5c-159,0-220.9-86.2-220.9-192.5c0-106.3,61.9-192.5,220.9-192.5&#10;&#9;&#9;&#9;C531.2,1293.2,593.1,1379.3,593.1,1485.6z" style="fill: rgb(255, 197, 78);"/>
		<path class="st1" d="M599.9,1289.6c-12.6-12.6-111.4-39.5-161.3,9.4c95.5,18.3,141.5,77.5,152.1,151.7&#10;&#9;&#9;&#9;C639.3,1400.7,612.5,1302.2,599.9,1289.6z M144.5,1289.6c-12.6,12.6-39.4,111.1,9.2,161.1c10.5-74.1,56.6-133.4,152.1-151.7&#10;&#9;&#9;&#9;C255.9,1250.1,157.1,1277,144.5,1289.6z" style="fill: rgb(254, 191, 51);"/>
		<path class="st2" d="M578.2,1311.3c-10.2-6.9-68.8-19.5-104.7-3.1c57.8,19.9,92.4,58.2,108.5,105.9&#10;&#9;&#9;&#9;C597,1378.4,585,1321.3,578.2,1311.3z M166.2,1311.3c-6.8,10-18.8,67.1-3.9,102.8c16.1-47.7,50.7-86,108.5-105.9&#10;&#9;&#9;&#9;C235.1,1291.8,176.4,1304.4,166.2,1311.3z" style="fill: rgb(229, 168, 18);"/>
		<path class="st2" d="M343.3,1294.2c-11.1,0.8-21.7,2.1-31.7,3.8v54.3c0,8.8,7.1,15.9,15.9,15.9c8.8,0,15.9-7.1,15.9-15.9V1294.2z&#10;&#9;&#9;&#9; M372.2,1385.1c8.8,0,15.9-7.1,15.9-15.9v-75.7c-5.2-0.2-10.5-0.3-15.9-0.3c-5.4,0-10.7,0.1-15.9,0.3v75.7&#10;&#9;&#9;&#9;C356.4,1378,363.5,1385.1,372.2,1385.1z M372.2,1515.1c-16.5,0-30,5.1-30,9.5c0,7.1,20.8,22.5,30,22.5s30-15.4,30-22.5&#10;&#9;&#9;&#9;C402.2,1520.1,388.7,1515.1,372.2,1515.1z M401.1,1294.2v58c0,8.8,7.1,15.9,15.9,15.9c8.8,0,15.9-7.1,15.9-15.9V1298&#10;&#9;&#9;&#9;C422.8,1296.2,412.2,1295,401.1,1294.2z" style="fill: rgb(229, 168, 18);"/>
		<path class="st3" d="M236.3,1581l-50.7,13.6c-5.7,1.5-9,7.3-7.5,13c1.5,5.7,7.3,9,13,7.5l50.7-13.6c5.7-1.5,9-7.3,7.5-13&#10;&#9;&#9;&#9;C247.8,1582.9,242,1579.5,236.3,1581z M241.8,1547.7l-50.7-13.6c-5.7-1.5-11.5,1.8-13,7.5c-1.5,5.7,1.8,11.5,7.5,13l50.7,13.6&#10;&#9;&#9;&#9;c5.7,1.5,11.5-1.8,13-7.5C250.9,1555,247.5,1549.2,241.8,1547.7z M558.8,1594.6l-50.7-13.6c-5.7-1.5-11.5,1.8-13,7.5&#10;&#9;&#9;&#9;c-1.5,5.7,1.8,11.5,7.5,13l50.7,13.6c5.7,1.5,11.5-1.8,13-7.5C567.9,1602,564.5,1596.1,558.8,1594.6z M508.1,1568.2l50.7-13.6&#10;&#9;&#9;&#9;c5.7-1.5,9-7.3,7.5-13c-1.5-5.7-7.3-9-13-7.5l-50.7,13.6c-5.7,1.5-9,7.3-7.5,13C496.6,1566.4,502.4,1569.7,508.1,1568.2z" style="fill: rgb(105, 80, 47);"/>
	</g>
	<g>
		<path class="st3" d="M279.1,1479c0-19.2-15.5-34.7-34.7-34.7s-34.7,15.5-34.7,34.7s15.5,34.7,34.7,34.7S279.1,1498.2,279.1,1479z" style="fill: rgb(105, 80, 47);"/>
		<path class="st3" d="M534.8,1479c0-19.2-15.5-34.7-34.7-34.7c-19.2,0-34.7,15.5-34.7,34.7s15.5,34.7,34.7,34.7&#10;&#9;&#9;&#9;C519.2,1513.8,534.8,1498.2,534.8,1479z" style="fill: rgb(105, 80, 47);"/>
		<path class="st4" d="M372.2,1638.8c-75.4,0-104.5-39.8-104.5-59.9c0-5.5,4.5-10,10-10h189c5.5,0,10,4.5,10,10&#10;&#9;&#9;&#9;C476.7,1599,447.6,1638.8,372.2,1638.8z" style="fill: rgb(255, 255, 255);"/>
		<path class="st3" d="M278.9,1467.2h-69c-8.3,0-15-6.7-15-15c0-8.3,6.7-15,15-15h69c8.3,0,15,6.7,15,15&#10;&#9;&#9;&#9;C293.9,1460.5,287.2,1467.2,278.9,1467.2z" style="fill: rgb(105, 80, 47);"/>
		<path class="st3" d="M534.6,1467.2h-69c-8.3,0-15-6.7-15-15c0-8.3,6.7-15,15-15h69c8.3,0,15,6.7,15,15&#10;&#9;&#9;&#9;C549.6,1460.5,542.9,1467.2,534.6,1467.2z" style="fill: rgb(105, 80, 47);"/>
	</g>
</g></g></svg>