<?xml version="1.0" encoding="utf-8"?>
<svg id="master-artboard" viewBox="0 0 1400 980" version="1.1" xmlns="http://www.w3.org/2000/svg" x="0px" y="0px" style="enable-background:new 0 0 336 235.2;" width="1400px" height="980px"><defs><linearGradient id="gradient-0" gradientUnits="objectBoundingBox" x1="0.5" y1="0" x2="0.5" y2="1">
                <stop offset="0" style="stop-color: #ff7aa0"/>
                <stop offset="1" style="stop-color: #ff1457"/>
              </linearGradient></defs><rect id="ee-background" x="0" y="0" width="1400" height="980" style="fill: rgb(255, 122, 160); fill-opacity: 1; pointer-events: none;"/><g transform="matrix(1.776944398880005, 0, 0, 2.026756048202515, -1912.0838493557549, -2486.2512748114364)"><g transform="matrix(1, 0, 0, 1, 1.1368683772161603e-13, 5.684341886080802e-14)">
	<g>
		<path class="st0" d="M1696.8,1485.6c0,106.3-61.9,192.5-220.9,192.5c-159,0-220.9-86.2-220.9-192.5&#10;&#9;&#9;&#9;c0-106.3,61.9-192.5,220.9-192.5C1634.9,1293.2,1696.8,1379.3,1696.8,1485.6z" style="fill: rgb(255, 197, 78);"/>
		<path class="st1" d="M1703.6,1289.6c-12.6-12.6-111.4-39.5-161.3,9.4c95.5,18.3,141.5,77.5,152.1,151.7&#10;&#9;&#9;&#9;C1743,1400.7,1716.2,1302.2,1703.6,1289.6z M1248.3,1289.6c-12.6,12.6-39.4,111.1,9.2,161.1c10.5-74.1,56.6-133.4,152.1-151.7&#10;&#9;&#9;&#9;C1359.6,1250.1,1260.9,1277,1248.3,1289.6z" style="fill: rgb(254, 191, 51);"/>
		<path class="st2" d="M1681.9,1311.3c-10.2-6.9-68.8-19.5-104.7-3.1c57.8,19.9,92.4,58.2,108.5,105.9&#10;&#9;&#9;&#9;C1700.7,1378.4,1688.7,1321.3,1681.9,1311.3z M1270,1311.3c-6.8,10-18.8,67.1-3.9,102.8c16.1-47.7,50.7-86,108.5-105.9&#10;&#9;&#9;&#9;C1338.8,1291.8,1280.1,1304.4,1270,1311.3z" style="fill: rgb(229, 168, 18);"/>
		<path class="st2" d="M1447.1,1294.2c-11.1,0.8-21.7,2.1-31.7,3.8v54.3c0,8.8,7.1,15.9,15.9,15.9c8.8,0,15.9-7.1,15.9-15.9V1294.2z&#10;&#9;&#9;&#9; M1476,1385.1c8.8,0,15.9-7.1,15.9-15.9v-75.7c-5.2-0.2-10.5-0.3-15.9-0.3s-10.7,0.1-15.9,0.3v75.7&#10;&#9;&#9;&#9;C1460.1,1378,1467.2,1385.1,1476,1385.1z M1475.9,1515.1c-16.5,0-30,5.1-30,9.5c0,7.1,20.8,22.5,30,22.5c9.1,0,30-15.4,30-22.5&#10;&#9;&#9;&#9;C1505.9,1520.1,1492.5,1515.1,1475.9,1515.1z M1504.8,1294.2v58c0,8.8,7.1,15.9,15.9,15.9s15.9-7.1,15.9-15.9V1298&#10;&#9;&#9;&#9;C1526.5,1296.2,1516,1295,1504.8,1294.2z" style="fill: rgb(229, 168, 18);"/>
		<path class="st3" d="M1340.1,1581l-50.7,13.6c-5.7,1.5-9,7.3-7.5,13c1.5,5.7,7.3,9,13,7.5l50.7-13.6c5.7-1.5,9-7.3,7.5-13&#10;&#9;&#9;&#9;S1345.7,1579.5,1340.1,1581z M1345.6,1547.7l-50.7-13.6c-5.7-1.5-11.5,1.8-13,7.5c-1.5,5.7,1.8,11.5,7.5,13l50.7,13.6&#10;&#9;&#9;&#9;c5.7,1.5,11.5-1.8,13-7.5S1351.3,1549.2,1345.6,1547.7z M1662.6,1594.6l-50.7-13.6c-5.7-1.5-11.5,1.8-13,7.5s1.8,11.5,7.5,13&#10;&#9;&#9;&#9;l50.7,13.6c5.7,1.5,11.5-1.8,13-7.5C1671.6,1602,1668.2,1596.1,1662.6,1594.6z M1611.8,1568.2l50.7-13.6c5.7-1.5,9-7.3,7.5-13&#10;&#9;&#9;&#9;s-7.3-9-13-7.5l-50.7,13.6c-5.7,1.5-9,7.3-7.5,13S1606.2,1569.7,1611.8,1568.2z" style="fill: rgb(105, 80, 47);"/>
	</g>
	<g>
		<path class="st3" d="M1475.9,1638.8c-75.4,0-104.5-39.7-104.5-59.9c0-5.5,4.5-10,10-10h189c5.5,0,10,4.5,10,10&#10;&#9;&#9;&#9;C1580.4,1599,1551.3,1638.8,1475.9,1638.8z" style="fill: rgb(105, 80, 47);"/>
		<g>
			<path class="st8" d="M1342.4,1539.5v-19.2c-13.5-0.6-26.6-4.2-34.3-8.7l6.1-23.6c8.5,4.6,20.4,8.9,33.5,8.9&#10;&#9;&#9;&#9;&#9;c11.5,0,19.4-4.4,19.4-12.5c0-7.7-6.5-12.5-21.4-17.6c-21.6-7.3-36.3-17.4-36.3-36.9c0-17.8,12.5-31.7,34.1-35.9v-19.2h19.8v17.8&#10;&#9;&#9;&#9;&#9;c13.5,0.6,22.6,3.4,29.3,6.7l-5.9,22.8c-5.2-2.2-14.5-6.9-29.1-6.9c-13.1,0-17.4,5.7-17.4,11.3c0,6.7,7.1,10.9,24.2,17.4&#10;&#9;&#9;&#9;&#9;c24,8.5,33.7,19.6,33.7,37.7c0,18-12.7,33.3-35.9,37.3v20.6H1342.4z" style="fill: rgb(92, 160, 56);"/>
		</g>
		<g>
			<path class="st8" d="M1587.8,1539.5v-19.2c-13.5-0.6-26.6-4.2-34.3-8.7l6.1-23.6c8.5,4.6,20.4,8.9,33.5,8.9&#10;&#9;&#9;&#9;&#9;c11.5,0,19.4-4.4,19.4-12.5c0-7.7-6.5-12.5-21.4-17.6c-21.6-7.3-36.3-17.4-36.3-36.9c0-17.8,12.5-31.7,34.1-35.9v-19.2h19.8v17.8&#10;&#9;&#9;&#9;&#9;c13.5,0.6,22.6,3.4,29.3,6.7l-5.9,22.8c-5.2-2.2-14.5-6.9-29.1-6.9c-13.1,0-17.4,5.7-17.4,11.3c0,6.7,7.1,10.9,24.2,17.4&#10;&#9;&#9;&#9;&#9;c24,8.5,33.7,19.6,33.7,37.7c0,18-12.7,33.3-35.9,37.3v20.6H1587.8z" style="fill: rgb(92, 160, 56);"/>
		</g>
	</g>
</g></g></svg>