<?xml version="1.0" encoding="utf-8"?>
<svg id="master-artboard" viewBox="0 0 1400 980" version="1.1" xmlns="http://www.w3.org/2000/svg" x="0px" y="0px" style="enable-background:new 0 0 336 235.2;" width="1400px" height="980px"><defs><linearGradient id="gradient-0" gradientUnits="objectBoundingBox" x1="0.5" y1="0" x2="0.5" y2="1">
                <stop offset="0" style="stop-color: #ff7aa0"/>
                <stop offset="1" style="stop-color: #ff1457"/>
              </linearGradient></defs><rect id="ee-background" x="0" y="0" width="1400" height="980" style="fill: rgb(254, 255, 237); fill-opacity: 0; pointer-events: none;"/><g transform="matrix(2.508438110351563, 0, 0, 2.508438110351563, -52.57767789107356, -1257.5533504772227)"><g transform="matrix(1, 0, 0, 1, 0, -1.4210854715202004e-14)"><g transform="matrix(1, 0, 0, 1, 0, -1.4210854715202004e-14)">
		<path class="st11" d="M149,584.2c-13.2,0-26.3,4.1-37.5,11c-10,6.1-21,14.6-26.6,25.2c-0.8,1.6-1.6,3.4-2.2,5.2&#10;&#9;&#9;&#9;c1.1,0.4,2.1,1.4,2.7,2.3c1.7,2.6,2.4,5.7,1.1,8.6c-0.6,1.2-1.5,1.9-2.5,2.1c0.3,0.3,0.5,0.7,0.8,1c3.7,3.9,8.6,6.1,13.6,7.8&#10;&#9;&#9;&#9;c14.1,4.6,28.9,6.2,43.7,4.7c10.9-1.2,23.2-3.3,33.1-8.3c8.8-4.5,13.6-11.5,14.1-21c-0.9-9-3.4-18.3-9.2-25.3&#10;&#9;&#9;&#9;C172.5,588.3,160.9,584.2,149,584.2z M110.5,627.1c-1.6,2.1-4.5,3-6.8,1.6c-3.8-2.1-3.9-6.2-3.1-8c1.7-3.7,7.8-5.5,10.2-1.4&#10;&#9;&#9;&#9;C112,621.6,112,625,110.5,627.1z M151.3,636.7c-7.3,5-20.8,8.1-27.7,0.6c-0.8-0.9-0.4-3,1.1-2.8c4.1,0.5,7.6,2.6,11.9,2.4&#10;&#9;&#9;&#9;c4.4-0.2,8.8-1.6,12.4-4.3c5.3-4.1,8.9-11.1,7-17.9c-2.2-7.8-9-13.9-17.4-13.3c-7.1,0.5-12.9,3.9-18.6,7.8&#10;&#9;&#9;&#9;c-1.8,1.2-3.6-1.4-2.2-2.9c6-6.5,16.2-10.7,25.1-9.3c8.7,1.4,16.5,8.7,17.9,17.6C162,623.3,158.5,631.7,151.3,636.7z" style="fill: rgb(129, 155, 155);"/>
		<path class="st12" d="M142.8,579.4c2.1-0.2,4.2-0.3,6.3-0.3c-0.3-4.2,0.6-9.9,4.7-11.9c6.1-2.9,15.1-1.1,17.2-9.4&#10;&#9;&#9;&#9;c2-8-4.6-11.9-11.6-10c-5.4,1.5-8.1,4.3-11.1,8.6c-1.1,2.6-2.3,1.8-2.7,0.6c-1.6-3.4-3.4-5.4-6.2-7.2c-2.9-1.8-6.4-2.6-9.8-1.5&#10;&#9;&#9;&#9;c-5.1,1.8-10.6,8.1-7.2,13.7c3.9,6.5,10.5,3.7,16,7.2C142,571.7,142.8,575.4,142.8,579.4z M153.6,556.4c0.7-5.9,6.8-7,10-5&#10;&#9;&#9;&#9;c4.3,2.7,3.3,10.2-1.6,11.6C157.6,564.2,152.6,561.1,153.6,556.4z M138.2,563.3c-3.9,3.2-9,2.1-10.8-2.6c-0.4-0.9-0.4-2.5-0.4-3.6&#10;&#9;&#9;&#9;c0.3-2.9,1.7-4.6,3.2-5.3c2-0.9,4.2-0.8,6.1,0.3C140.1,554.4,142.2,560,138.2,563.3z" style="fill: rgb(111, 221, 221);"/>
		<path class="st0" d="M216,589.4c-3.2-5.5-2.6-10.9-2.8-16.8c-2,2.6-3.7,5.4-3.7,9c0,3.7,1.1,7.1,2.3,10.6c2,5.5,4.9,11.8,3.9,17.9&#10;&#9;&#9;&#9;c-1.6,9.7-10.1,14.3-22.8,15.1c-0.2,3.3-1.3,7.6-1.7,8.8c6.9-0.1,10.1-2,14.7-3.9c8-3.1,14.4-8.5,15.7-17.5&#10;&#9;&#9;&#9;c0.6-4.3,1-9.9-0.7-14.1C219.8,595.3,217.8,592.5,216,589.4z" style="fill: rgb(255, 105, 105);"/>
		<path class="st3" d="M142.8,597.1c-8.9-1.4-19.1,2.8-25.1,9.3c-1.4,1.5,0.4,4.1,2.2,2.9c5.7-3.9,11.5-7.3,18.6-7.8&#10;&#9;&#9;&#9;c8.4-0.5,15.2,5.5,17.4,13.3c2,6.8-1.6,13.8-7,17.9c-3.5,2.7-7.9,4.1-12.4,4.3c-4.2,0.2-7.8-1.9-11.9-2.4c-1.5-0.2-2,1.8-1.1,2.8&#10;&#9;&#9;&#9;c6.9,7.5,20.4,4.4,27.7-0.6c7.3-5,10.7-13.4,9.4-22C159.3,605.8,151.5,598.5,142.8,597.1z" style="fill: rgb(30, 30, 30);"/>
		<path class="st3" d="M218.3,586.3c-2.8-4.8-1.9-10.9-1.7-16.2c0.2-5.5-2.8-2.3-3.4-1.9c-10.1,6.3-6.9,18.6-3.7,27.7&#10;&#9;&#9;&#9;c2.4,7,4.1,14.8-1.8,20.5c-4.1,4-9.7,3.8-14.8,5c-0.7-25.4-11.2-33.6-28.4-39.7c-3.6-1.3-7.2-2-10.9-2.4c-0.4-5.2,1.4-8.7,7.1-9.7&#10;&#9;&#9;&#9;c4.2-0.7,7.4-1.2,10.7-4.1c5.4-4.7,5.8-14.2,0.9-19.2c-4.3-4.4-11.9-3.6-17-1.5c-3,1.2-6.8,3.7-8.6,6.8c-2.5-4.3-7.5-7.7-12.2-8&#10;&#9;&#9;&#9;c-6.6-0.5-12.6,2.7-15.9,8.4c-3.3,5.6-1.6,12.1,2.9,16.3c2.7,2.5,6.1,3.2,9.6,3.7c2.1,0.3,4.5,0.5,6.2,2c1.3,1.1,1.5,3.6,1.8,5.8&#10;&#9;&#9;&#9;c-15.2,2.4-30.1,10.2-41.2,19.3c-8.7,7.2-17.5,16-20.2,27.4c-2.4,10.3,3.5,18,12.3,22.5c22.7,11.7,51.5,9.9,75.3,3.4&#10;&#9;&#9;&#9;c7.6-2.1,15.2-5.1,21-10.5c1.3-1.2,2.3-2.4,3.1-3.7c6.3,0.1,14-2.3,19.6-4.7c6.4-2.8,12.3-7,15-13.7c2.7-6.8,3.5-15.6,0.5-22.5&#10;&#9;&#9;&#9;C222.8,593.4,220.4,590,218.3,586.3z M138.3,569.3c-5.5-3.5-12.1-0.7-16-7.2c-3.4-5.6,2.2-12,7.2-13.7c3.4-1.2,6.9-0.4,9.8,1.5&#10;&#9;&#9;&#9;c2.8,1.7,4.6,3.8,6.2,7.2c0.3,1.2,1.5,2,2.7-0.6c3-4.3,5.7-7.1,11.1-8.6c7-1.9,13.6,2,11.6,10c-2.1,8.3-11.1,6.5-17.2,9.4&#10;&#9;&#9;&#9;c-4.1,1.9-5,7.6-4.7,11.9c-2.1,0-4.2,0.1-6.3,0.3C142.8,575.4,142,571.7,138.3,569.3z M175.3,643.8c-9.9,5-22.2,7.1-33.1,8.3&#10;&#9;&#9;&#9;c-14.7,1.6-29.6,0-43.7-4.7c-5-1.7-9.9-3.9-13.6-7.8c-0.3-0.3-0.6-0.6-0.8-1c1-0.2,1.9-0.8,2.5-2.1c1.4-2.9,0.7-6.1-1.1-8.6&#10;&#9;&#9;&#9;c-0.6-0.9-1.6-1.9-2.7-2.3c0.6-1.9,1.3-3.6,2.2-5.2c5.6-10.6,16.6-19.1,26.6-25.2c11.2-6.9,24.3-11,37.5-11&#10;&#9;&#9;&#9;c11.9,0,23.5,4,31.2,13.3c5.8,7,8.3,16.2,9.2,25.3C188.9,632.3,184.1,639.3,175.3,643.8z M221.8,612.7&#10;&#9;&#9;&#9;c-1.3,8.9-7.7,14.4-15.7,17.5c-4.7,1.8-7.8,3.7-14.7,3.9c0.4-1.2,1.5-5.5,1.7-8.8c12.7-0.8,21.2-5.5,22.8-15.1&#10;&#9;&#9;&#9;c1-6-2-12.3-3.9-17.9c-1.2-3.5-2.3-6.9-2.3-10.6c0-3.7,1.6-6.4,3.7-9c0.2,5.9-0.4,11.3,2.8,16.8c1.8,3.1,3.8,5.9,5.2,9.2&#10;&#9;&#9;&#9;C222.8,602.8,222.5,608.4,221.8,612.7z" style="fill: rgb(30, 30, 30);"/>
		<path class="st3" d="M136.3,552.2c-1.9-1.1-4.1-1.2-6.1-0.3c-1.5,0.7-2.9,2.4-3.2,5.3c0,1.1,0.1,2.6,0.4,3.6&#10;&#9;&#9;&#9;c1.8,4.7,6.9,5.7,10.8,2.6C142.2,560,140.1,554.4,136.3,552.2z M136.2,560.8c-2.1,2.3-4.8,1.2-6.1-1.2c-0.3-0.6-1-3,1.3-4.5&#10;&#9;&#9;&#9;c0.9-0.6,2-0.6,2.9-0.1C136.6,555.9,138.1,558.7,136.2,560.8z" style="fill: rgb(30, 30, 30);"/>
		<path class="st3" d="M161.9,563c4.9-1.4,6-8.9,1.6-11.6c-3.2-2-9.3-1-10,5C152.6,561.1,157.6,564.2,161.9,563z M156.3,556.6&#10;&#9;&#9;&#9;c0.6-2.5,2.6-2.9,4.3-2.8c1.1,0,1.9,0.9,2.2,1.8c0.7,1.8-0.1,3.5-1.7,4.4C158.8,561.3,155.6,559.1,156.3,556.6z" style="fill: rgb(30, 30, 30);"/>
		<path class="st3" d="M100.5,620.7c-0.8,1.8-0.7,5.9,3.1,8c2.4,1.3,5.3,0.5,6.8-1.6c1.6-2.1,1.5-5.5,0.2-7.8&#10;&#9;&#9;&#9;C108.4,615.2,102.2,617,100.5,620.7z" style="fill: rgb(30, 30, 30);"/>
	</g><path class="st4" d="M177.8,599.8c-3.7-4.9-11.4-11.8-18.1-9.7c-2.3,0.7-3.1,3.5-1.4,5.2c3.7,3.9,8.6,6.2,11.9,10.6&#10;&#9;&#9;c3.6,4.8,2.5,11.2,7.7,14.8c0.7,0.5,1.8,0.3,2.4-0.3C186.2,614.9,181.9,605.1,177.8,599.8z" style="opacity: 0.5; fill: rgb(255, 255, 255);" transform="matrix(1, 0, 0, 1, 0, -1.4210854715202004e-14)"/><path class="st4" d="M183.6,624.4c-0.5-0.9-1.4-1.5-2.3-1.8c-1.1-0.3-2,0-3,0.4c-1.1,0.5-1.6,1.5-2,2.5c-0.2,0.6-0.4,1.1-0.3,1.8&#10;&#9;&#9;c0.1,0.9,0.3,2,0.8,2.8c0.7,1.1,1.8,1.8,3.1,1.8c1.4,0,2.6-0.8,3.2-2c0,0,0,0.1,0,0.1c0.1-0.1,0.1-0.3,0.2-0.4&#10;&#9;&#9;c0.3-0.4,0.6-0.9,0.8-1.5C184.3,626.7,184.2,625.6,183.6,624.4z" style="opacity: 0.5; fill: rgb(255, 255, 255);" transform="matrix(1, 0, 0, 1, 0, -1.4210854715202004e-14)"/><path class="st4" d="M143.3,605.2c-4-1.1-11.2-1.1-14.2,2.2c-1.1,1.2-1.2,3.6,0.6,4.4c3.7,1.7,8.2,0.5,12.1,1.6&#10;&#9;&#9;c3.4,0.9,3.9,7.7,8.1,6c1.8-0.7,2.5-1.8,2.8-3.7C153.3,610.4,147.8,606.5,143.3,605.2z" style="opacity: 0.5; fill: rgb(255, 255, 255);" transform="matrix(1, 0, 0, 1, 0, -1.4210854715202004e-14)"/><path class="st4" d="M149.5,623c-1.4-1.4-3.7-0.7-4.3,1.1c-0.2,0.7-0.2,1.3,0,2c0.2,1,1.4,1.7,2.4,1.4c0.3-0.1,0.5-0.1,0.8-0.2&#10;&#9;&#9;c0.9-0.3,1.5-0.9,1.8-1.8C150.5,624.6,150.2,623.6,149.5,623z" style="opacity: 0.5; fill: rgb(255, 255, 255);" transform="matrix(1, 0, 0, 1, 0, -1.4210854715202004e-14)"/><path class="st4" d="M108.8,621.2C108.8,621.2,108.8,621.2,108.8,621.2c0-0.1,0-0.1-0.1-0.1c-0.1-0.2-0.1-0.3-0.1-0.5&#10;&#9;&#9;c-0.4-1.6-2.8-1.6-3.2,0c-0.1,0.5-0.2,1.1-0.3,1.6c-0.1,1.3,1,2.2,2.2,2.2c0.5,0,1.1-0.3,1.4-0.8&#10;&#9;&#9;C109.1,622.8,109.3,622.1,108.8,621.2z" style="opacity: 0.5; fill: rgb(255, 255, 255);" transform="matrix(1, 0, 0, 1, 0, -1.4210854715202004e-14)"/></g></g><g transform="matrix(2.280988931655884, 0, 0, 2.280988931655884, -56.168735232723066, -1126.6265135633041)"><g transform="matrix(1, 0, 0, 1, -71.5040283203125, -17.25959396362306)"><g transform="matrix(1, 0, 0, 1, 0, -1.4210854715202004e-14)">
		<path class="st2" d="M603,595c-4.7-2.1-10.9-1.8-16-2.4c-13.6-1.5-27.3-2.1-41-1.7c-13.1,0.4-20.7,0.4-33.7,0.7&#10;&#9;&#9;&#9;c-6.7,0.1-19,1.8-25.3,4.3c-2.4,0.9-2.1,3.4-2.5,5c0.7,9.8,0.8,15.8,3.5,24c2.3,7.2,6.5,13.7,12.5,18.5&#10;&#9;&#9;&#9;c13.6,10.9,32.2,11.5,48.9,10.7c14-0.7,33.8-0.4,44.1-11.6c10.3-11.2,10.5-25.6,12.2-36.3C606.3,601.6,605.4,596.1,603,595z&#10;&#9;&#9;&#9; M598.3,608.6c-1.3,8.4-12.3,10-19.1,10.6c-13.2,1.2-26.4,2.6-39.6,2.8c-13,0.1-26.3-0.3-38.5-4.9c-5.9-2.2-14.2-6.1-11.5-13.7&#10;&#9;&#9;&#9;c0.5-1.4,2.9-1.3,2.7,0.4c-0.1,1,0.1,1.9,0.5,2.7c2.4-2.5,6.1-2.8,9.5-3.1c5.4-0.6,10.8-1.5,16.2-2.1c2.8-0.3,5.7-1,8.6-1.1&#10;&#9;&#9;&#9;c2.9-0.1,5.6,0.5,8.4,0.6c5.3,0.2,10.7-0.1,16-0.2c10.4-0.3,20.7-0.1,30.9,1.6c4.1,0.7,9.9,1.8,12.2,5.6c0.2-0.2,0.4-0.5,0.6-0.7&#10;&#9;&#9;&#9;C596.5,605.3,598.5,607,598.3,608.6z" style="fill: rgb(255, 194, 0);"/>
		<path class="st9" d="M574.8,605.1c-10.2-0.9-20.3-0.5-30.5-0.3c-5.2,0.1-10.5-0.8-15.7-0.6c-4.6,0.2-9.1,1.1-13.7,1.3&#10;&#9;&#9;&#9;c-4.5,0.2-9.1,1.3-13.5,2c-2.3,0.4-5.3,0.3-6.5,1.7c4.5,3.7,13.4,5.5,17.3,6.2c10.7,1.9,21.9,2,32.7,1.5c10.7-0.5,21.3-1.4,32-2.3&#10;&#9;&#9;&#9;c3.6-0.3,7.3-0.5,10.7-1.7c1.7-0.6,3-1.4,4.2-2.4C588.5,605.8,579.9,605.5,574.8,605.1z" style="fill: rgb(128, 232, 255);"/>
		<path class="st3" d="M595.2,606.9c-0.2,0.2-0.4,0.5-0.6,0.7c-2.4-3.8-8.1-4.9-12.2-5.6c-10.3-1.7-20.5-1.8-30.9-1.6&#10;&#9;&#9;&#9;c-5.3,0.1-10.7,0.4-16,0.2c-2.8-0.1-5.6-0.7-8.4-0.6c-2.9,0.1-5.8,0.7-8.6,1.1c-5.4,0.6-10.8,1.5-16.2,2.1&#10;&#9;&#9;&#9;c-3.4,0.4-7.1,0.6-9.5,3.1c-0.4-0.8-0.6-1.7-0.5-2.7c0.1-1.7-2.2-1.8-2.7-0.4c-2.7,7.6,5.6,11.5,11.5,13.7&#10;&#9;&#9;&#9;c12.2,4.6,25.5,5,38.5,4.9c13.2-0.2,26.5-1.6,39.6-2.8c6.8-0.6,17.8-2.2,19.1-10.6C598.5,607,596.5,605.3,595.2,606.9z&#10;&#9;&#9;&#9; M587.6,612.8c-3.4,1.2-7.1,1.4-10.7,1.7c-10.7,0.9-21.3,1.8-32,2.3c-10.8,0.5-22,0.4-32.7-1.5c-3.9-0.7-12.8-2.4-17.3-6.2&#10;&#9;&#9;&#9;c1.2-1.3,4.2-1.3,6.5-1.7c4.5-0.7,9-1.8,13.5-2c4.6-0.2,9.1-1.1,13.7-1.3c5.2-0.2,10.4,0.7,15.7,0.6c10.2-0.2,20.3-0.6,30.5,0.3&#10;&#9;&#9;&#9;c5.1,0.5,13.7,0.7,17.1,5.3C590.7,611.4,589.4,612.2,587.6,612.8z" style="fill: rgb(30, 30, 30);"/>
		<path class="st3" d="M596.8,589c-16.9-1.8-33.7-3.1-50.8-2.6c-8.8,0.2-16.4-0.4-25.2,0.2c-7.7,0.6-14.9,0.6-22.6,1.7&#10;&#9;&#9;&#9;c-4.6,0.6-20.2,1-18.5,13.5c0.7,16.7,3.8,33.8,16.8,45.4c13.6,12.2,33.7,13,50.9,12.4c15.9-0.5,34.7-1.2,47.7-11.6&#10;&#9;&#9;&#9;c10.4-8.4,12.9-22.1,14.1-35.3c1.4-10.5,1.8-12.5,0-17.2C607.4,590.4,601.6,589.5,596.8,589z M605.5,606.1&#10;&#9;&#9;&#9;c-1.7,10.7-1.9,25.1-12.2,36.3c-10.3,11.2-30.1,11-44.1,11.6c-16.7,0.8-35.3,0.2-48.9-10.7c-5.9-4.8-10.1-11.3-12.5-18.5&#10;&#9;&#9;&#9;c-2.7-8.2-2.8-14.2-3.5-24c0.4-1.6,0.1-4.1,2.5-5c6.3-2.5,18.6-4.1,25.3-4.3c13.1-0.3,20.7-0.4,33.7-0.7c13.7-0.4,27.4,0.2,41,1.7&#10;&#9;&#9;&#9;c5.1,0.6,11.3,0.3,16,2.4C605.4,596.1,606.3,601.6,605.5,606.1z" style="fill: rgb(30, 30, 30);"/>
	</g><path class="st4" d="M596.4,622.2c-0.8-1-2.3-1-3.4-0.4c-1.9,0.9-3,3.2-3.9,4.9c-1.1,2.2-2.3,4.2-2.4,6.7c0,3.9,4.3,4.9,7,2.9&#10;&#9;&#9;c2.1-1.6,2.9-4.5,3.7-6.9C598.1,627,598,624.2,596.4,622.2z" style="opacity: 0.5; fill: rgb(255, 255, 255);" transform="matrix(1, 0, 0, 1, 0, -1.4210854715202004e-14)"/><path class="st4" d="M585.1,637.5c-0.6,0-0.9,0.1-1.4,0.4c-1,0.4-1.6,1-2.1,1.9c-0.2,0.3-0.4,0.6-0.6,0.9c-0.3,0.4-0.4,0.9-0.6,1.3&#10;&#9;&#9;c-0.4,1,0.4,2.3,1.4,2.5c0.6,0.1,1.2,0.2,1.7,0.1c0.5-0.1,1-0.5,1.5-0.8c0.7-0.4,1.4-0.9,1.8-1.6c0.3-0.6,0.6-1.6,0.6-2.2&#10;&#9;&#9;C587.5,638.6,586.5,637.4,585.1,637.5z" style="opacity: 0.5; fill: rgb(255, 255, 255);" transform="matrix(1, 0, 0, 1, 0, -1.4210854715202004e-14)"/><path class="st4" d="M504.5,632.5c-3-3.1-5-8.7-9.3-10.1c-1.7-0.6-3.2,0.9-3.3,2.5c-0.4,4,3.7,8.9,6,11.8c2.3,2.9,7.2,7.6,11.2,5&#10;&#9;&#9;C512.9,639.2,506.1,634.2,504.5,632.5z" style="opacity: 0.5; fill: rgb(255, 255, 255);" transform="matrix(1, 0, 0, 1, 0, -1.4210854715202004e-14)"/><path class="st4" d="M514.1,641.1c-1.8,1.1-1.7,3.6,0,4.7c0.5,0.4,1.2,0.5,1.8,0.7c0.1,0,0.2,0.1,0.3,0.1c-0.5-0.2-0.3-0.1,0.5,0.2&#10;&#9;&#9;c0.3,0.1,0.5,0.2,0.8,0.3c0.7,0.3,1.7,0.3,2.4,0.1c1.3-0.3,2.3-1.5,2.3-2.9C522.1,640.8,516.7,639.6,514.1,641.1z" style="opacity: 0.5; fill: rgb(255, 255, 255);" transform="matrix(1, 0, 0, 1, 0, -1.4210854715202004e-14)"/></g></g><g transform="matrix(1.7863592500073016, 0, 0, 1.7863592500073016, -239.3000087180324, -427.095908621955)"><g transform="matrix(1, 0, 0, 1, -33.28635787963867, -9.862625122070327)"><g transform="matrix(1, 0, 0, 1, 0, -1.4210854715202004e-14)">
		<path class="st10" d="M313.6,592.7c-1,1.2-1.2,2.7-1.7,4c2.2,2.1,5.6,3.6,7.9,4.3c4.4,1.5,9,2.2,13.6,2.3c8.4,0.2,16.9,0,25.4-0.3&#10;&#9;&#9;&#9;c8.7-0.3,17.8-0.8,26.2-3.4c2.4-0.7,5.3-0.9,7.6-2.3c2.5-1.7,2-3.3,2.1-5.4c0-2.3-0.5-4.7-1.9-6.6c-1.4-1.9-4.2-3.5-6.5-2.1&#10;&#9;&#9;&#9;c-1.2,0.8-1.9,2.3-3.4,2.4c-1.1,0.1-1.2-1.8-1-2.5c0.4-1.1,1.1-2.2,2.1-2.9c0.6-4.8-4.9-5.5-7.1-1.9c-1.1,1.9-4.1,0.6-3.5-1.5&#10;&#9;&#9;&#9;c0.8-2.9,1-9.7-3.7-9.4c-4,0.3-6.8,2.7-9.4,5.4c-0.8,0.9-2.4,0-2-1.2c0.1-0.4,0.3-0.8,0.5-1.1c-1.6-3.7-3-6.1-7-5.8&#10;&#9;&#9;&#9;c-3.9,0.3-5.6,4-6.4,7.8c-0.4,1.6-2.4,1.6-3.3,0.4c-1.6-2.2-3.8-5.3-7-5.1c-3.4,0.3-5.3,1.9-6.1,4.9c0.7,0.5,1.3,1.2,1.4,2.1&#10;&#9;&#9;&#9;c0.1,0.5,0,1-0.5,1.2c-2,0.9-3.7-0.5-5.7-0.2c-2,0.2-3.7,1.7-4.6,3.4c-1,1.8-1.5,4.1-1,6.2c0.2,0.8,0.6,1.7,0.8,2.5&#10;&#9;&#9;&#9;c1.2,2.8-0.2,2.6-2.3,2.7C315.7,591.2,314.5,591.6,313.6,592.7z M368,589.4c0.7-0.1,1.4-0.2,2.2-0.1c1.1-2.6,4.7-4.5,7-2.3&#10;&#9;&#9;&#9;c0.6,0.6,0.8,1.5,0,2c-0.8,0.5-1.7,0.4-2.5,0.5c-0.6,0.1-0.9,0.4-1.2,0.8c2,1,3.4,2.8,2.7,5c-0.1,0.4-0.6,0.7-1,0.6&#10;&#9;&#9;&#9;c-2.6-0.8-3.6-3.8-6.7-3.2c-3.3,0.7-4.5,3.1-6.2,5.7c-0.5,0.8-1.6,0.5-1.7-0.5C360.2,593.8,364.2,590.3,368,589.4z M352.1,578.9&#10;&#9;&#9;&#9;c2.1-0.1,4.2,0.5,5.8,1.8c1.5,1.2,3.3,3.3,2.5,5.3c-0.3,0.9-1.1,1.2-2,0.8c-1.4-0.6-1.7-2.1-2.8-3.1c-1-0.9-2.2-1.5-3.6-1.4&#10;&#9;&#9;&#9;c-3.2,0.3-4,2.9-6.2,4.7c-0.4,0.3-0.8,0.2-1-0.3C343.4,582.7,348.6,579.1,352.1,578.9z M325.5,596.1c1-3.8,4.4-6.1,8.3-6&#10;&#9;&#9;&#9;c2.9,0.1,5.1,1.9,6.5,4.3c4.1-3.3,11.4-2.2,11.7,4.2c0,0.8-0.9,1.3-1.6,0.9c-2.4-1.3-4.6-6.7-9.5-0.5c-1.2,1.5-2.5,1.8-3-0.2&#10;&#9;&#9;&#9;c-0.6-2.3-2-4.9-4.7-5.3c-3.1-0.5-4.6,1.5-6.5,3.5C326.3,597.6,325.3,596.9,325.5,596.1z" style="fill: rgb(186, 114, 60);"/>
		<path class="st6" d="M425.9,621.1c-2.9-7.1-5.6-14.3-9.3-21c-3.4-6.2-8.4-15.2-15.7-17.3c-2-0.6-4.1-0.9-6.2-1&#10;&#9;&#9;&#9;c1.6,1.8,2.9,4.1,3.5,6.5c0.9-1.6,3.3-0.6,3.4,1.1c0.5,8.3-7.6,12.5-14.3,14.6c-10.8,3.4-21.8,3.6-33.1,3.7&#10;&#9;&#9;&#9;c-10.8,0.2-24.7,1-35.1-2.9c-5.7-2.1-15-5.8-11.5-13.4c0.4-0.8,1.7-0.4,1.7,0.5c0,0.6,0.1,1.2,0.3,1.8c0.4-1.2,1-2.3,1.8-3.1&#10;&#9;&#9;&#9;c1-1,2.1-1.8,3.4-2.3c-0.5-1.1-0.7-2.4-0.8-3.3c-0.1-0.9,0-1.3,0.1-2.2c-5.8,0.8-13.4,1.9-16.9,6.1c-4.8,5.8-9.1,14.7-12.1,21.5&#10;&#9;&#9;&#9;c-3.2,7.1-4.9,13.4-7.7,20.6c-1.6,4.2-4.7,9.7,0,12.9c12.8,8.7,27.7,9.6,34.7,10.7c17,2.6,30.1,3,46.1,3.1&#10;&#9;&#9;&#9;c16.2,0.1,34.3-0.6,50-5.1c9.2-2.6,23.1-4.8,22.8-13.1c-0.1-2.8-0.6-6.3-1.8-9.3C428.1,627,427.2,624.3,425.9,621.1z" style="fill: rgb(152, 235, 63);"/>
		<path class="st3" d="M326.9,596.9c1.9-2,3.4-4,6.5-3.5c2.6,0.4,4.1,3,4.7,5.3c0.5,2,1.8,1.7,3,0.2c4.9-6.2,7.1-0.8,9.5,0.5&#10;&#9;&#9;&#9;c0.7,0.4,1.6-0.1,1.6-0.9c-0.3-6.3-7.6-7.4-11.7-4.2c-1.4-2.3-3.6-4.2-6.5-4.3c-3.9-0.1-7.4,2.2-8.3,6&#10;&#9;&#9;&#9;C325.3,596.9,326.3,597.6,326.9,596.9z" style="fill: rgb(30, 30, 30);"/>
		<path class="st3" d="M345.9,587c2.1-1.8,3-4.4,6.2-4.7c1.4-0.1,2.6,0.4,3.6,1.4c1.1,1,1.3,2.5,2.8,3.1c0.9,0.4,1.6,0.1,2-0.8&#10;&#9;&#9;&#9;c0.8-2-1-4.1-2.5-5.3c-1.6-1.3-3.7-1.9-5.8-1.8c-3.5,0.2-8.7,3.9-7.2,7.9C345.1,587.2,345.5,587.3,345.9,587z" style="fill: rgb(30, 30, 30);"/>
		<path class="st3" d="M362.1,598.5c1.7-2.6,2.9-5,6.2-5.7c3.1-0.7,4.2,2.3,6.7,3.2c0.4,0.1,0.9-0.2,1-0.6c0.7-2.2-0.7-4-2.7-5&#10;&#9;&#9;&#9;c0.3-0.4,0.7-0.7,1.2-0.8c0.9-0.1,1.8,0,2.5-0.5c0.8-0.5,0.7-1.5,0-2c-2.3-2.2-5.9-0.3-7,2.3c-0.8-0.1-1.6-0.1-2.2,0.1&#10;&#9;&#9;&#9;c-3.8,0.8-7.8,4.4-7.6,8.6C360.5,598.9,361.6,599.2,362.1,598.5z" style="fill: rgb(30, 30, 30);"/>
		<path class="st3" d="M418.4,593.9c-4.1-6.8-9.5-13.7-17.5-15.8c-3.4-0.9-7.1-0.9-10.6-0.7c-1.1,0-2.4,0-3.6,0.2&#10;&#9;&#9;&#9;c-0.3-2-1.2-4-3.2-4.8c-2.1-0.9-4.2-0.8-6,0c-0.2-3.5-1.5-6.7-4.9-8.4c-3.8-1.9-8.8,0.1-11.9,3.2c-1.5-3.5-5.1-7.2-8.9-6.6&#10;&#9;&#9;&#9;c-4.3,0.7-7.4,3.7-9.1,7.4c-2.5-2.6-5.7-4.7-9.5-3.7c-3.8,1-6.9,3.4-6.9,7.2c-1-0.2-2.1-0.2-2.9-0.1c-2.8,0.3-5.4,2.1-7,4.4&#10;&#9;&#9;&#9;c-0.6,0.9-1.1,1.9-1.5,2.9c-3.3-0.3-6.8,0.7-10,1.3c-3.5,0.6-6.4,1.9-9.1,4.2c-7.3,6-11.7,16.6-15.4,25.1c-2,4.6-3.8,9.3-5.5,14&#10;&#9;&#9;&#9;c-1.6,4.2-4.1,9.2-4.8,13.6c-1.4,8.2,1.8,9.2,5.5,11.8c9.8,5,18.2,7.5,25.5,8.7c18.4,3.1,37.3,4.4,55.9,4.7&#10;&#9;&#9;&#9;c18.3,0.3,39.5-0.7,57.1-6.1c5.8-1.8,19-6,20.9-10.2c3.8-8.2-1.7-19.2-4.6-26.3C426.7,611.1,423.4,602.1,418.4,593.9z M317,591&#10;&#9;&#9;&#9;c2.1-0.2,3.5,0,2.3-2.7c-0.3-0.9-0.6-1.7-0.8-2.5c-0.5-2.1,0.1-4.3,1-6.2c0.9-1.7,2.6-3.2,4.6-3.4c2-0.2,3.7,1.1,5.7,0.2&#10;&#9;&#9;&#9;c0.5-0.2,0.6-0.8,0.5-1.2c-0.1-1-0.7-1.6-1.4-2.1c0.8-3,2.7-4.6,6.1-4.9c3.1-0.2,5.4,2.9,7,5.1c0.8,1.2,2.9,1.2,3.3-0.4&#10;&#9;&#9;&#9;c0.8-3.8,2.5-7.5,6.4-7.8c4-0.3,5.4,2.1,7,5.8c-0.2,0.4-0.3,0.8-0.5,1.1c-0.4,1.2,1.2,2,2,1.2c2.6-2.7,5.5-5.1,9.4-5.4&#10;&#9;&#9;&#9;c4.8-0.3,4.5,6.5,3.7,9.4c-0.6,2.1,2.4,3.4,3.5,1.5c2.1-3.7,7.7-3,7.1,1.9c-1,0.7-1.7,1.8-2.1,2.9c-0.2,0.7-0.2,2.5,1,2.5&#10;&#9;&#9;&#9;c1.5-0.1,2.2-1.6,3.4-2.4c2.4-1.5,5.1,0.1,6.5,2.1c1.4,1.9,1.9,4.3,1.9,6.6c0,2.1,0.4,3.7-2.1,5.4c-2.2,1.3-5.2,1.5-7.6,2.3&#10;&#9;&#9;&#9;c-8.4,2.6-17.5,3.1-26.2,3.4c-8.4,0.3-16.9,0.5-25.4,0.3c-4.7-0.1-9.2-0.8-13.6-2.3c-2.3-0.8-5.6-2.3-7.9-4.3&#10;&#9;&#9;&#9;c0.6-1.3,0.7-2.8,1.7-4C314.5,591.6,315.7,591.2,317,591z M408.3,652.6c-15.6,4.5-33.8,5.2-50,5.1c-16.1-0.1-29.2-0.5-46.1-3.1&#10;&#9;&#9;&#9;c-7.1-1.1-22-2-34.7-10.7c-4.6-3.2-1.6-8.7,0-12.9c2.8-7.2,4.5-13.5,7.7-20.6c3.1-6.9,7.3-15.7,12.1-21.5&#10;&#9;&#9;&#9;c3.5-4.1,11.1-5.3,16.9-6.1c-0.1,0.9-0.2,1.2-0.1,2.2c0.1,0.9,0.3,2.2,0.8,3.3c-1.3,0.5-2.5,1.3-3.4,2.3c-0.7,0.8-1.4,1.9-1.8,3.1&#10;&#9;&#9;&#9;c-0.2-0.6-0.3-1.2-0.3-1.8c0-0.9-1.3-1.3-1.7-0.5c-3.5,7.6,5.8,11.3,11.5,13.4c10.4,3.8,24.3,3,35.1,2.9&#10;&#9;&#9;&#9;c11.3-0.2,22.2-0.3,33.1-3.7c6.8-2.1,14.8-6.3,14.3-14.6c-0.1-1.7-2.5-2.7-3.4-1.1c-0.6-2.4-1.9-4.7-3.5-6.5&#10;&#9;&#9;&#9;c2.1,0.2,4.1,0.5,6.2,1c7.3,2.1,12.3,11.1,15.7,17.3c3.7,6.7,6.4,14,9.3,21c1.3,3.2,2.2,5.9,3.5,9.1c1.2,3,1.7,6.5,1.8,9.3&#10;&#9;&#9;&#9;C431.5,647.8,417.6,650,408.3,652.6z" style="fill: rgb(30, 30, 30);"/>
	</g><path class="st4" d="M374.3,581.8c-5.5-7.5-18.4-13.6-26.6-7.1c-2.5,2-1.5,6.3,1,7.7c2.9,1.6,6.4,1.7,9.5,3.1&#10;&#9;&#9;c3.3,1.5,6.3,3.4,9.8,4.6C372.4,591.6,377.2,585.8,374.3,581.8z" style="opacity: 0.5; fill: rgb(255, 255, 255);" transform="matrix(1, 0, 0, 1, 0, -1.4210854715202004e-14)"/><path class="st4" d="M384.1,591c-0.1-0.2-0.2-0.4-0.3-0.5c-0.5-0.8-1-1.3-1.8-1.9c-0.6-0.4-1.4-0.7-2.1-1c-1.1-0.5-2.6,0.1-3.4,0.9&#10;&#9;&#9;c-0.8,0.8-1.4,2.3-0.9,3.4c0.3,0.7,0.5,1.4,0.9,2c0.5,0.7,1,1.4,1.8,1.8l0.7,0.4c1.5,0.8,3.3,0.6,4.5-0.6S384.9,592.4,384.1,591z" style="opacity: 0.5; fill: rgb(255, 255, 255);" transform="matrix(1, 0, 0, 1, 0, -1.4210854715202004e-14)"/><path class="st4" d="M300.5,603.8c-0.8-1.4-2.4-1.9-3.9-1.6c-5,0.9-6.7,7.6-8.3,11.6c-1.7,4.3-5.5,11.6-2.3,15.9&#10;&#9;&#9;c1,1.4,2.2,1.8,3.9,1.6c5.1-0.7,6.7-7.5,8.1-11.6C299.5,615.2,302.9,608.3,300.5,603.8z" style="opacity: 0.5; fill: rgb(255, 255, 255);" transform="matrix(1, 0, 0, 1, 0, -1.4210854715202004e-14)"/><path class="st4" d="M419.8,614.6c-1.5-3.3-5-14.9-10.5-12.8c0,0,0,0,0,0c-1.4,0.5-3,1.6-3.2,3.2c-0.8,5.9,2.5,11.9,4.8,17.2&#10;&#9;&#9;c1.7,3.7,5.4,12.2,10.8,9.1C427.4,628.2,421.6,618.5,419.8,614.6z" style="opacity: 0.5; fill: rgb(255, 255, 255);" transform="matrix(1, 0, 0, 1, 0, -1.4210854715202004e-14)"/></g></g><g transform="matrix(0.8716101442525399, 0, 0, 0.8716101442525399, 353.7567956621566, 149.56104041572115)"><g transform="matrix(1, 0, 0, 1, 0, -1.4210854715202004e-14)"><g transform="matrix(1, 0, 0, 1, 0, -1.4210854715202004e-14)">
		<path class="st5" d="M837.7,597.6c8.9,0.9,17.3,5.4,21.4,13.5c2.8-7.5,16.4-11,23.2-11.4c-2-3.7-3.2-7.4-7.2-10&#10;&#9;&#9;&#9;c-3.9-2.6-8.6-4.4-13.2-5.2C853.6,583.2,840.5,588.8,837.7,597.6z" style="fill: rgb(94, 181, 0);"/>
		<path class="st5" d="M885.4,596c4.5-8.9,11.7-11.6,17.7-12.2c-2.4-4.9-4.4-9.6-9.5-12.6c-4-2.4-8.7-4.1-13.4-4.1&#10;&#9;&#9;&#9;c-4.6-0.1-9.4,0.8-13.3,3.4c-3.2,2.2-4.9,4.9-6.7,7.9c0.2,0.7,0.4,1.4,0.5,2.1C870.6,581.5,881.5,586.6,885.4,596z" style="fill: rgb(94, 181, 0);"/>
		<path class="st5" d="M800.2,581.5c2.5-0.4,5-0.6,7.6-0.6c-3-7.5-9.8-11.6-18-11.6c-6.8-0.1-13,1.1-17.2,6.6&#10;&#9;&#9;&#9;c1.7,4.1,2.8,8.5,3.7,12.9c0.5,2.7,0.9,5.3,1.2,8C780.3,587.9,791.2,582.9,800.2,581.5z" style="fill: rgb(94, 181, 0);"/>
		<path class="st6" d="M838.3,567.9c-6-0.5-14.5,1.9-19.2,6.5c-2.6,2.6-3,3.8-4.6,7c2,0.3,3.9,0.7,5.7,1.3&#10;&#9;&#9;&#9;c5.5,1.8,12.1,5.4,15.2,10.8c3.4-6.9,13.3-12.2,20.8-13.1C853.8,572.7,846.5,568.6,838.3,567.9z" style="fill: rgb(152, 235, 63);"/>
		<path class="st6" d="M906.1,578.9c0.6,1.5,1.1,3,1.4,4.7c0.2,0,0.5,0,0.7,0c0,0,0.1,0,0.1,0c0.1-1.8,0.4-3.6,0.7-5.4&#10;&#9;&#9;&#9;c0.5-2.6,1.3-5,2.3-7.2C908.9,573.1,907.2,575.9,906.1,578.9z" style="fill: rgb(152, 235, 63);"/>
		<path class="st6" d="M895.2,606.6c-3.8-1.8-7.8-3.2-12.1-3.1c-4.8,0.2-10,1.1-14.3,3.3c-3.8,1.9-5.8,4.1-7.7,7.4&#10;&#9;&#9;&#9;c10.9-0.5,21,5.2,26.8,14.4c0,0,0,0,0,0c4.2-1,8.2-2.5,11.1-5.3c2.4-2.3,4-5.1,5.2-8c-1.1-1.4-1.8-3.1-3.1-4.4&#10;&#9;&#9;&#9;C899.4,609.1,897.4,607.7,895.2,606.6z" style="fill: rgb(152, 235, 63);"/>
		<path class="st6" d="M897.9,589.3c-5.1,1.9-7.6,6.4-10.6,10.6c4.2,0.5,8.4,2,12,4.2c1.9,1.2,4.9,3.2,6.7,5.6&#10;&#9;&#9;&#9;c0.1-0.3,0.1-0.5,0.2-0.8c0.6-2.8,0.9-5.7,1.3-8.5c0-2.9,0.3-5.8,0.4-8.5c0.1-1.6,0.1-3.2,0.2-4.8&#10;&#9;&#9;&#9;C904.9,587,901.6,587.9,897.9,589.3z" style="fill: rgb(152, 235, 63);"/>
		<path class="st7" d="M986.5,528.5c-27.3-10.8-57-14.2-86.1-16.1c-15-1-30.1-1.6-45.1-2.3c-14.7-0.7-29.4-1.7-44.2-1.6&#10;&#9;&#9;&#9;c-30.2,0.1-60.3,4.1-89.9,10.1c-9.3,1.9-18.9,3.5-28.1,6c-3.6,1-7.5,2.2-11.1,3.9c-8.4,5.4-10.5,13-11,22.7&#10;&#9;&#9;&#9;c-0.5,11.1-0.5,22.3,0.2,33.4c0.9,13.6,1.6,27.8,4.4,41.1c0.8,4,2.1,10.7,4,14.4c2.1,4.1,3.8,5.2,8.9,7.6&#10;&#9;&#9;&#9;c5.3,3.2,11.1,5.4,17.3,7.1c12.4,3.5,24.8,6.6,37.7,7.3c14.7,0.8,29.5,0.3,44.2,2.1c15.1,1.8,29.7,4.2,45,4&#10;&#9;&#9;&#9;c15.3-0.2,30.4-2.4,45.6-2.5c15.4-0.1,30.7,1,46.1,0.1c24.8-1.4,49.5-5.6,69.8-20.3c2.2-2.5,3.1-6.9,3.5-9.1&#10;&#9;&#9;&#9;c0.9-4.9,1.3-9.9,2-14.8c2-13.9,4-27.8,4.7-41.8c0.6-11.7,1.7-25.2-2-36.5C1000.3,536.6,996.8,532.6,986.5,528.5z M989.7,547.6&#10;&#9;&#9;&#9;c-2.1,5.7-8.7,7.2-14.3,8.7c-11.2,3-22.6,5.1-34.2,5.5c-11.4,0.5-24.4,2.1-27.3,15.2c-1.3,5.7-1.5,11.6-1.8,17.4&#10;&#9;&#9;&#9;c0.8,5.8-0.5,12.5-2,18.1c-1.4,5.1-3.6,10.5-7.7,14.1c-10.9,9.5-28.3,8.7-41.9,9.5c-17.5,1-35.4,0.3-52.7-2.2&#10;&#9;&#9;&#9;c-12.3-1.8-29.2-6.1-32.2-20.3c-2.3-7.2-2.1-16-3.3-22.4c-1.2-6.2-2.5-12.9-5.9-18.3c-4.2-6.8-10.9-9.9-18.6-11.1&#10;&#9;&#9;&#9;c-7.7-1.1-15.6-0.9-23.3-1.1c-8.5-0.2-16.9-0.7-25.3-1.3c-5.3-0.4-11.6-0.3-15.8-4.1c-2.8-2.4-3.7-5.4-3.2-8.6&#10;&#9;&#9;&#9;c0.3-10.2,15.5-15.8,23.6-18.3c9.6-3,19.4-5,29.3-6.5c6.4-0.9,40-4,46.4-4.3c14.2-0.7,29.5-0.1,43.8-0.1c28.2,0,56.5-1.3,84.6,1.5&#10;&#9;&#9;&#9;c19.3,1.9,39.2,3.7,58,8.9c4.3,1.2,20,5.1,24.2,11.6C991.1,541.6,991.6,544,989.7,547.6z" style="fill: rgb(255, 90, 126);"/>
		<path class="st8" d="M975.9,535.9c-6.3-2.4-12.7-4.2-19.3-5.6c-19.5-4.2-39.9-6.3-59.8-7.6c-12.8-0.8-25.6-0.7-38.5-0.5&#10;&#9;&#9;&#9;c-12.3,0.2-24.7-0.2-37-0.2c-13,0-22-0.3-35,0.1c-5.9,0.2-17,1.4-22.8,1.2c-1.8-0.1-21.7,1.5-29.4,2.6c-7.7,1.2-15.5,2.6-23.1,4.6&#10;&#9;&#9;&#9;c-9.9,2.7-26.1,7.7-26.5,17c1.1,6.4,6.5,5.9,12.8,6.4c7.8,0.6,15.7,1.3,23.5,1.8c12.6,0.8,27.2-0.8,38.8,5.1&#10;&#9;&#9;&#9;c5.2,2.7,8.7,6.7,11.2,11.4c3.5-6.2,13.4-7.4,19.9-7.1c9.4,0.5,17,5.2,20.6,13.6c1.8-4.4,6.2-9.6,9.3-11.5c6-3.7,13-4,19.8-3.3&#10;&#9;&#9;&#9;c7,0.8,14.3,4.4,17.9,10.3c4.3-7.5,14.7-11.5,22.8-11c8.7,0.5,18,4.8,23,12.2c1.6-4.5,6.1-8.5,10.4-9.9c0.1,0,0.2-0.1,0.4-0.1&#10;&#9;&#9;&#9;c2.8-3.1,6.6-5.4,11.3-6.5c11.8-2.9,24.2-1.8,36.1-4.2c5.4-1.1,11.3-2.2,16.4-4.4c2.4-1,5.5-2.3,6.3-4.9&#10;&#9;&#9;&#9;C987.1,539,978.4,536.8,975.9,535.9z" style="fill: rgb(212, 38, 76);"/>
		<path class="st5" d="M823.8,622.3c-3.4-2.9-8.2-5.1-12.8-4.8c-4.7,0.3-10.4,0.6-13.4,4.1c-1.7,2-3,3.3-4,4.2&#10;&#9;&#9;&#9;c6.2,2.4,13.1,3.4,19.9,4c5.5,0.5,11,1,16.5,1.3C828,628.1,826.7,624.7,823.8,622.3z" style="fill: rgb(94, 181, 0);"/>
		<path class="st6" d="M802.7,615.1c-0.3-0.3-0.5-0.6-0.8-0.9c-1.9-1.8-4.4-3.2-6.7-4.3c-5.6-2.6-10.1-1.7-15.7-0.9&#10;&#9;&#9;&#9;c0,0.1,0,0.2,0,0.2c0,0.1,0,0.1,0,0.2c1.3,4.6,3.5,8.2,6.6,12.3c0,0,0,0,0,0.1c1.4,1,2.9,1.9,4.5,2.6c1-2.6,4.5-5.6,5.9-6.4&#10;&#9;&#9;&#9;C798.3,616.9,800.4,615.9,802.7,615.1z" style="fill: rgb(152, 235, 63);"/>
		<path class="st5" d="M801.7,585.2c-5.5,0.6-10.3,2.6-14.7,6c-3.7,2.9-6,9-7,14.3c8.5-4.5,20.1,0.1,25.6,7.4&#10;&#9;&#9;&#9;c1.9-8.7,16.4-13.9,23.8-15c1-0.2,2.1-0.3,3.1-0.3C826.2,587.2,813.2,584,801.7,585.2z" style="fill: rgb(94, 181, 0);"/>
		<path class="st5" d="M860.4,617.8c-4.8,0.5-9.6,2.7-13.3,5.8c-2.8,2.4-4.5,5.1-6.5,8c6,0.2,12,0.2,18-0.2&#10;&#9;&#9;&#9;c6.9-0.4,13.9-0.7,20.8-1.5c1.3-0.2,2.7-0.3,4-0.5C877.8,622.2,870.3,616.8,860.4,617.8z" style="fill: rgb(94, 181, 0);"/>
		<path class="st6" d="M856.5,614.8c-4.2-11.1-17.9-16-28.8-12.8c-6.8,1.9-16,5.1-19.5,11.7c1-0.1,1.9-0.2,2.9-0.3&#10;&#9;&#9;&#9;c9.3-0.3,21.3,8,22.9,17.9c1.5,0.1,2.9,0.1,4.4,0.2C838.4,623.5,848.8,616.8,856.5,614.8z" style="fill: rgb(152, 235, 63);"/>
		<path class="st3" d="M982.9,522.2c-26.1-8.4-53.4-12.6-80.7-14.6c-15.6-1.1-31.3-1.7-47-2.4c-15.3-0.7-30.7-1.7-46-1.6&#10;&#9;&#9;&#9;c-30,0.1-60,4.2-89.3,10.3c-9.7,2-19.6,3.9-29.1,6.7c-5.2,1.6-10.7,3.6-15,7.1c-5.7,3.4-8.4,10.5-9.6,17.1&#10;&#9;&#9;&#9;c-2.2,12.9-1.3,26.8-0.6,39.8c0.9,14.7,2,30.1,5.2,44.5c1.4,6.3,1.1,14.8,11.8,21.3c5.7,3.3,10.1,4.5,14.7,6.3&#10;&#9;&#9;&#9;c10.5,4.2,22.3,7.2,33.4,8.9c14.2,2.2,28.7,1.7,43,2.3c15,0.6,29.6,4.1,44.6,4.9c15.3,0.8,30.3-0.4,45.5-1.6&#10;&#9;&#9;&#9;c15.2-1.2,30.6-0.2,45.9-0.1c25.3,0.2,51.7-2.4,74.6-14c3.6-1.8,15.5-5.8,17.4-14.5c1.2-5.3,2-10.5,2.9-15.8&#10;&#9;&#9;&#9;c2.5-16.2,4.7-32.5,5.6-48.8c0.7-12.9,1.6-28-4-40C1003.9,533.3,998.3,527.6,982.9,522.2z M1004.5,579.9&#10;&#9;&#9;&#9;c-0.8,14-2.8,27.9-4.7,41.8c-0.7,4.9-1.1,9.9-2,14.8c-0.4,2.2-1.3,6.6-3.5,9.1c-20.3,14.7-45,18.8-69.8,20.3&#10;&#9;&#9;&#9;c-15.3,0.9-30.7-0.2-46.1-0.1c-15.2,0.1-30.4,2.2-45.6,2.5c-15.3,0.2-29.9-2.1-45-4c-14.7-1.8-29.5-1.3-44.2-2.1&#10;&#9;&#9;&#9;c-12.9-0.7-25.3-3.8-37.7-7.3c-6.2-1.7-12-3.9-17.3-7.1c-5.1-2.4-6.8-3.5-8.9-7.6c-1.9-3.7-3.2-10.4-4-14.4&#10;&#9;&#9;&#9;c-2.8-13.3-3.5-27.5-4.4-41.1c-0.7-11.1-0.7-22.3-0.2-33.4c0.4-9.7,2.6-17.3,11-22.7c3.6-1.7,7.6-2.9,11.1-3.9&#10;&#9;&#9;&#9;c9.2-2.5,18.7-4.1,28.1-6c29.6-6,59.7-10,89.9-10.1c14.8,0,29.5,0.9,44.2,1.6c15,0.7,30.1,1.3,45.1,2.3&#10;&#9;&#9;&#9;c29.2,1.9,58.9,5.4,86.1,16.1c10.4,4.1,13.9,8.1,16.1,14.9C1006.2,554.7,1005.1,568.2,1004.5,579.9z" style="fill: rgb(30, 30, 30);"/>
		<path class="st3" d="M965.8,527.9c-18.8-5.2-38.7-7-58-8.9c-28.1-2.8-56.4-1.5-84.6-1.5c-14.2,0-29.6-0.6-43.8,0.1&#10;&#9;&#9;&#9;c-6.5,0.3-40.1,3.3-46.4,4.3c-9.9,1.5-19.8,3.5-29.3,6.5c-8.1,2.5-23.3,8.1-23.6,18.3c-0.5,3.2,0.4,6.1,3.2,8.6&#10;&#9;&#9;&#9;c4.2,3.7,10.6,3.7,15.8,4.1c8.4,0.6,16.9,1.1,25.3,1.3c7.8,0.2,15.6,0,23.3,1.1c7.7,1.1,14.5,4.3,18.6,11.1&#10;&#9;&#9;&#9;c3.4,5.5,4.6,12.1,5.9,18.3c1.3,6.4,1.1,15.2,3.3,22.4c3.1,14.2,19.9,18.5,32.2,20.3c17.3,2.6,35.2,3.3,52.7,2.2&#10;&#9;&#9;&#9;c13.6-0.8,31,0,41.9-9.5c4.1-3.6,6.3-9,7.7-14.1c1.6-5.6,2.8-12.3,2-18.1c0.4-5.8,0.5-11.7,1.8-17.4c2.9-13.1,15.9-14.7,27.3-15.2&#10;&#9;&#9;&#9;c11.6-0.5,23-2.5,34.2-5.5c5.5-1.5,12.1-3,14.3-8.7c1.9-3.6,1.4-5.9,0.3-8.1C985.8,533,970.2,529.1,965.8,527.9z M776.2,588.8&#10;&#9;&#9;&#9;c-0.9-4.4-2-8.8-3.7-12.9c4.2-5.4,10.5-6.6,17.2-6.6c8.3,0.1,15,4.1,18,11.6c-2.6,0-5.1,0.2-7.6,0.6c-9,1.4-19.9,6.5-22.8,15.3&#10;&#9;&#9;&#9;C777,594.1,776.7,591.4,776.2,588.8z M861.9,584.6c4.7,0.8,9.3,2.6,13.2,5.2c4,2.6,5.3,6.3,7.2,10c-6.8,0.4-20.4,3.9-23.2,11.4&#10;&#9;&#9;&#9;c-4.1-8.1-12.6-12.6-21.4-13.5C840.5,588.8,853.6,583.2,861.9,584.6z M860.2,578.3c1.8-3,3.5-5.7,6.7-7.9&#10;&#9;&#9;&#9;c3.9-2.6,8.7-3.5,13.3-3.4c4.7,0.1,9.4,1.7,13.4,4.1c5,3,7.1,7.7,9.5,12.6c-6,0.6-13.3,3.4-17.7,12.2c-4-9.4-14.8-14.6-24.8-15.6&#10;&#9;&#9;&#9;C860.6,579.7,860.4,579,860.2,578.3z M835.4,593.5c-3.1-5.3-9.6-8.9-15.2-10.8c-1.8-0.6-3.8-1-5.7-1.3c1.6-3.2,2.1-4.4,4.6-7&#10;&#9;&#9;&#9;c4.7-4.7,13.1-7,19.2-6.5c8.2,0.6,15.5,4.8,17.9,12.5C848.7,581.3,838.8,586.6,835.4,593.5z M832.5,597.5c-1,0.1-2.1,0.2-3.1,0.3&#10;&#9;&#9;&#9;c-7.4,1.2-22,6.3-23.8,15c-5.5-7.3-17.1-11.9-25.6-7.4c1.1-5.3,3.3-11.4,7-14.3c4.4-3.4,9.2-5.4,14.7-6&#10;&#9;&#9;&#9;C813.2,584,826.2,587.2,832.5,597.5z M790.4,624.4c-1.6-0.8-3.1-1.6-4.5-2.6c0,0,0,0,0-0.1c-3.1-4.1-5.3-7.7-6.6-12.3&#10;&#9;&#9;&#9;c0,0,0-0.1,0-0.2c0-0.1,0-0.2,0-0.2c5.6-0.8,10.1-1.7,15.7,0.9c2.4,1.1,4.9,2.5,6.7,4.3c0.3,0.3,0.6,0.6,0.8,0.9&#10;&#9;&#9;&#9;c-2.2,0.8-4.4,1.8-6.3,2.9C794.9,618.8,791.4,621.8,790.4,624.4z M813.5,629.8c-6.8-0.6-13.8-1.6-19.9-4c1-0.9,2.3-2.2,4-4.2&#10;&#9;&#9;&#9;c3-3.5,8.7-3.9,13.4-4.1c4.6-0.3,9.4,2,12.8,4.8c2.9,2.5,4.3,5.9,6.3,8.8C824.5,630.8,819,630.3,813.5,629.8z M834,631.4&#10;&#9;&#9;&#9;c-1.6-9.9-13.6-18.1-22.9-17.9c-0.9,0-1.9,0.1-2.9,0.3c3.6-6.7,12.8-9.8,19.5-11.7c10.9-3.1,24.6,1.7,28.8,12.8&#10;&#9;&#9;&#9;c-7.7,2-18.2,8.7-18.2,16.7C836.9,631.5,835.5,631.4,834,631.4z M879.5,629.9c-6.9,0.8-13.9,1.1-20.8,1.5c-6,0.4-12,0.4-18,0.2&#10;&#9;&#9;&#9;c2-2.9,3.7-5.6,6.5-8c3.6-3.1,8.5-5.3,13.3-5.8c9.8-1,17.4,4.4,23.1,11.6C882.2,629.6,880.8,629.8,879.5,629.9z M899.1,623.3&#10;&#9;&#9;&#9;c-2.9,2.8-6.9,4.4-11.1,5.3c0,0,0,0,0,0c-5.8-9.2-16-14.9-26.8-14.4c1.9-3.3,3.9-5.5,7.7-7.4c4.3-2.2,9.5-3.1,14.3-3.3&#10;&#9;&#9;&#9;c4.2-0.1,8.3,1.2,12.1,3.1c2.2,1.1,4.2,2.5,6,4.2c1.3,1.3,2,3,3.1,4.4C903.1,618.2,901.4,620.9,899.1,623.3z M907.9,592&#10;&#9;&#9;&#9;c-0.1,2.7-0.4,5.6-0.4,8.5c-0.5,2.8-0.7,5.7-1.3,8.5c-0.1,0.3-0.1,0.5-0.2,0.8c-1.8-2.4-4.7-4.4-6.7-5.6c-3.6-2.2-7.8-3.7-12-4.2&#10;&#9;&#9;&#9;c3-4.2,5.5-8.6,10.6-10.6c3.7-1.4,7.1-2.3,10.2-2.1C908,588.8,908,590.4,907.9,592z M909,578.3c-0.3,1.8-0.5,3.6-0.7,5.4&#10;&#9;&#9;&#9;c0,0-0.1,0-0.1,0c-0.2,0-0.5,0-0.7,0c-0.3-1.7-0.8-3.2-1.4-4.7c1-3,2.8-5.9,5.2-7.9C910.3,573.3,909.5,575.7,909,578.3z&#10;&#9;&#9;&#9; M985.1,545.6c-0.8,2.6-3.9,3.8-6.3,4.9c-5.1,2.2-11,3.3-16.4,4.4c-11.9,2.4-24.3,1.3-36.1,4.2c-4.7,1.2-8.5,3.4-11.3,6.5&#10;&#9;&#9;&#9;c-0.1,0-0.2,0.1-0.4,0.1c-4.3,1.4-8.8,5.3-10.4,9.9c-5-7.3-14.3-11.6-23-12.2c-8.1-0.5-18.6,3.5-22.8,11&#10;&#9;&#9;&#9;c-3.7-5.9-10.9-9.5-17.9-10.3c-6.8-0.8-13.9-0.4-19.8,3.3c-3.1,1.9-7.5,7.2-9.3,11.5c-3.6-8.4-11.2-13.1-20.6-13.6&#10;&#9;&#9;&#9;c-6.5-0.3-16.4,0.9-19.9,7.1c-2.5-4.7-6-8.8-11.2-11.4c-11.6-5.9-26.2-4.3-38.8-5.1c-7.8-0.5-15.7-1.2-23.5-1.8&#10;&#9;&#9;&#9;c-6.3-0.5-11.7,0-12.8-6.4c0.5-9.3,16.7-14.3,26.5-17c7.6-2.1,15.3-3.4,23.1-4.6c7.7-1.2,27.5-2.7,29.4-2.6c5.8,0.2,17-1,22.8-1.2&#10;&#9;&#9;&#9;c13-0.3,22-0.1,35-0.1c12.3,0,24.7,0.4,37,0.2c12.9-0.2,25.6-0.4,38.5,0.5c19.9,1.3,40.3,3.4,59.8,7.6c6.5,1.4,13,3.2,19.3,5.6&#10;&#9;&#9;&#9;C978.4,536.8,987.1,539,985.1,545.6z" style="fill: rgb(30, 30, 30);"/>
	</g><path class="st4" d="M748.6,567.4c-5.2-1.9-11.1-2.2-16.5-3.2c-5.4-1-13.8-2-16.8,3.7c-0.7,1.2-0.6,2.9,0.5,3.8&#10;&#9;&#9;c3.1,2.9,7.5,2.6,11.4,3.4c4.9,1,9.8,1.7,14.6,2.8c3.1,0.7,6.1,1.7,8.4,4c2.6,2.5,3,6,6.1,8.2c1.9,1.4,5.4,0.5,6.4-1.7&#10;&#9;&#9;C767.2,578.8,756.6,570.3,748.6,567.4z" style="opacity: 0.5; fill: rgb(255, 255, 255);" transform="matrix(1, 0, 0, 1, 0, -1.4210854715202004e-14)"/><path class="st4" d="M767.3,598.4c-0.5-1.7-1.3-4.1-3-4.9c-1.9-0.9-3.6-0.4-4.8,1.3c-1.1,1.4-0.7,3.8-0.4,5.5&#10;&#9;&#9;c0.3,2,1.3,3.9,3.3,4.6c1.3,0.7,2.8,0.4,3.7-0.7c0.7-0.6,1.2-1.2,1.4-2.1C767.8,600.9,767.6,599.5,767.3,598.4z" style="opacity: 0.5; fill: rgb(255, 255, 255);" transform="matrix(1, 0, 0, 1, 0, -1.4210854715202004e-14)"/><path class="st4" d="M960.1,566.6c-7.6-4-19.4-1-27.1,1.9c-7.3,2.7-19.5,14-12.3,22.3c0.8,0.9,2.3,1,3.2,0.4c3.5-2.1,4-6.4,6.5-9.4&#10;&#9;&#9;c2.4-2.7,5.9-4,9.2-4.9c7.4-2.1,16.2-0.7,21.2-7.5C961.5,568.7,961,567.1,960.1,566.6z" style="opacity: 0.5; fill: rgb(255, 255, 255);" transform="matrix(1, 0, 0, 1, 0, -1.4210854715202004e-14)"/><path class="st4" d="M977.7,561c-2.7-2.4-5.8-0.9-8.5,0.5c-2.6,1.3-4.8,4.5-2.6,7.1c1.4,1.7,4.4,1.2,6.2,0.5&#10;&#9;&#9;c2.3-0.9,5.3-1.6,5.9-4.4C978.9,563.4,978.7,561.9,977.7,561z" style="opacity: 0.5; fill: rgb(255, 255, 255);" transform="matrix(1, 0, 0, 1, 0, -1.4210854715202004e-14)"/><path class="st4" d="M709.5,638.9c-2.9-3.5-8.8-3.9-12.8-6c-10.2-5.4-7.4-19.5-11.6-28.4c-1-2.1-4.2-1.8-5.3,0&#10;&#9;&#9;c-2.5,4.4-1.7,9.8-0.9,14.6c0.9,5.3,2.2,11.1,5.2,15.7c2.4,3.6,6,6.2,9.8,8.1c3.8,1.9,9.7,4.5,13.9,2.7&#10;&#9;&#9;C710.7,644.3,711.6,641.4,709.5,638.9z" style="opacity: 0.5; fill: rgb(255, 255, 255);" transform="matrix(1, 0, 0, 1, 0, -1.4210854715202004e-14)"/><path class="st4" d="M732.7,644.6c-3-2.1-7.2-2.6-10.8-2.7c-2.3-0.1-7,1.6-6.1,4.7c0.7,2.5,3.6,3.6,5.8,4.2c3.4,1,6.5,2,10,1.5&#10;&#9;&#9;C735.7,651.8,735.3,646.4,732.7,644.6z" style="opacity: 0.5; fill: rgb(255, 255, 255);" transform="matrix(1, 0, 0, 1, 0, -1.4210854715202004e-14)"/><path class="st4" d="M798.6,654.6c-3.2-2.5-7.7-2.8-11.7-3c-3.8-0.3-9.1-1.2-11.8,2.1c-0.5,0.6-0.5,1.2,0,1.8&#10;&#9;&#9;c2.4,3,7.3,2.9,10.8,3.5c4.2,0.7,8.7,1.6,12.7-0.5C800.2,657.5,799.8,655.5,798.6,654.6z" style="opacity: 0.5; fill: rgb(255, 255, 255);" transform="matrix(1, 0, 0, 1, 0, -1.4210854715202004e-14)"/><path class="st4" d="M992.2,613.3c-1-1-2.3-0.8-3.3,0c-2.9,2.3-2.9,7-3.7,10.4c-1.1,4.4-2.5,8.9-5.3,12.4&#10;&#9;&#9;c-3.3,4.1-7.7,5.6-12.7,6.8c-4.3,1-9.1,1.8-11.7,5.7c-1.1,1.7-0.1,4.4,2,4.8c5.1,1,11.8-1,16.8-2.3c5.3-1.4,10.1-4.7,13.5-9&#10;&#9;&#9;c3.3-4.2,5.4-9.3,6.2-14.6C994.4,623.3,995.6,616.7,992.2,613.3z" style="opacity: 0.5; fill: rgb(255, 255, 255);" transform="matrix(1, 0, 0, 1, 0, -1.4210854715202004e-14)"/><path class="st4" d="M994.9,593.6c-1.2-1.1-2.7-1-3.9,0c-1.2,1-1.6,2.7-2,4.2c-0.3,1.6-0.9,3.1-0.8,4.7c0.2,2.8,3.7,4.7,5.8,2.4&#10;&#9;&#9;C996.5,602.3,997.9,596.2,994.9,593.6z" style="opacity: 0.5; fill: rgb(255, 255, 255);" transform="matrix(1, 0, 0, 1, 0, -1.4210854715202004e-14)"/></g></g></svg>